<?xml version="1.0" encoding="UTF-8"?>
<svg width="81px" height="75px" viewBox="0 0 81 75" version="1.1" xmlns="http://www.w3.org/2000/svg" xmlns:xlink="http://www.w3.org/1999/xlink">
    <!-- Generator: Sketch 53.2 (72643) - https://sketchapp.com -->
    <title>DCU_Illustration_Homepage_Non-Functional_For the Whole Family</title>
    <desc>Created with Sketch.</desc>
    <g id="DCU_Illustration_Homepage_Non-Functional_For-the-Whole-Family" stroke="none" stroke-width="1" fill="none" fill-rule="evenodd">
        <path d="M57.07,72.5001 L26.84,72.5001 L26.84,61.8201 C26.84,55.7801 31.75,50.8701 37.79,50.8701 L46.12,50.8701 C52.16,50.8701 57.07,55.7801 57.07,61.8201 L57.07,72.5001 Z M34.51,40.4801 C34.51,36.1901 38.01,32.6901 42.3,32.6901 C46.59,32.6901 50.09,36.1901 50.09,40.4801 C50.09,44.7801 46.59,48.2701 42.3,48.2701 C38.01,48.2701 34.51,44.7801 34.51,40.4801 L34.51,40.4801 Z M10.07,21.4201 C10.07,17.1301 13.56,13.6301 17.86,13.6301 C22.15,13.6301 25.64,17.1301 25.64,21.4201 C25.64,25.7101 22.15,29.2101 17.86,29.2101 C13.56,29.2101 10.07,25.7101 10.07,21.4201 L10.07,21.4201 Z M55.11,10.1601 C55.11,5.8701 58.6,2.3701 62.9,2.3701 C67.19,2.3701 70.68,5.8701 70.68,10.1601 C70.68,14.4501 67.19,17.9501 62.9,17.9501 C58.6,17.9501 55.11,14.4501 55.11,10.1601 L55.11,10.1601 Z M68.92,18.3401 C71.42,16.4801 73.05,13.5101 73.05,10.1601 C73.05,4.5601 68.5,0.0001 62.9,0.0001 C57.29,0.0001 52.74,4.5601 52.74,10.1601 C52.74,13.4801 54.34,16.4401 56.82,18.2901 C52.01,19.0801 47.89,22.4201 46.18,27.0801 C45.95,27.7301 46.28,28.4501 46.93,28.6901 C47.57,28.9201 48.29,28.5901 48.53,27.9401 C50.14,23.5501 54.36,20.6001 59.04,20.6001 L66.35,20.6001 C72.89,20.6001 78.2,25.9101 78.2,32.4401 L78.2,72.5001 L59.57,72.5001 L59.57,61.8201 C59.57,55.2001 54.75,49.6701 48.43,48.5701 C50.88,46.7201 52.46,43.7801 52.46,40.4801 C52.46,34.8801 47.9,30.3201 42.3,30.3201 C36.7,30.3201 32.14,34.8801 32.14,40.4801 C32.14,43.7301 33.67,46.6301 36.06,48.4901 C29.45,49.3301 24.34,55.0001 24.34,61.8201 L24.34,72.5001 L2.5,72.4701 L2.5,41.5801 C2.5,36.2101 6.86,31.8401 12.23,31.8401 L21.96,31.8401 C24.91,31.8401 27.68,33.2901 29.38,35.7001 C29.78,36.2701 30.56,36.4001 31.13,36.0001 C31.69,35.6101 31.83,34.8301 31.43,34.2601 C29.65,31.7401 26.96,30.0501 23.98,29.5201 C26.43,27.6601 28.01,24.7201 28.01,21.4201 C28.01,15.8201 23.46,11.2601 17.86,11.2601 C12.25,11.2601 7.7,15.8201 7.7,21.4201 C7.7,24.6301 9.2,27.5001 11.54,29.3601 C5.12,29.7201 0,35.0601 0,41.5801 L0,73.0701 C0,74.1201 0.85,74.9701 1.9,74.9701 L24.34,75.0001 L78.8,75.0001 C79.85,75.0001 80.7,74.1401 80.7,73.0901 L80.7,32.4401 C80.7,25.4101 75.61,19.5401 68.92,18.3401 L68.92,18.3401 Z" id="Fill-1" fill="#01675A"></path>
    </g>
</svg>