<svg xmlns="http://www.w3.org/2000/svg" width="75" height="75" viewBox="0 0 75 75">
  <g id="HEART-HANDS" transform="translate(-464 -322)">
    <rect id="Rectangle_20624" data-name="Rectangle 20624" width="75" height="75" transform="translate(464 322)" fill="none"/>
    <g id="Group_37030" data-name="Group 37030">
      <path id="Path_28080" data-name="Path 28080" d="M58.561,33.372a.808.808,0,0,1-.571-1.379c3.767-3.767,6.1-8.208,6.582-12.5A14.716,14.716,0,0,0,60.019,7.165,18.841,18.841,0,0,0,46.605,1.615h-.024A18.926,18.926,0,0,0,33.139,7.191L31.723,8.608A.808.808,0,0,1,30.58,7.464L32,6.049A20.522,20.522,0,0,1,46.579,0h.026A20.445,20.445,0,0,1,61.162,6.022a16.283,16.283,0,0,1,5.017,13.646c-.518,4.659-3.021,9.442-7.046,13.467a.808.808,0,0,1-.571.236" transform="translate(470.979 332)" fill="#01675a" stroke="#01675a" stroke-width="0.5"/>
      <path id="Path_28081" data-name="Path 28081" d="M34.775,55.7a3.078,3.078,0,0,1-2.142-.86L6.659,29.765l-.3-.3a.813.813,0,0,1,0-1.147.8.8,0,0,1,1.138,0l.3.3L33.755,53.681a1.478,1.478,0,0,0,2.06-.018L61.167,28.311a.808.808,0,0,1,1.142,1.144L36.957,54.8a3.081,3.081,0,0,1-2.182.9" transform="translate(467.802 335.681)" fill="#01675a" stroke="#01675a" stroke-width="0.5"/>
      <path id="Path_28082" data-name="Path 28082" d="M14.882,40.3a.808.808,0,0,1-.57-1.38c4.417-4.394,15.1-14.925,18.267-18.047a2.228,2.228,0,0,1,3.022-.111c6.544,5.561,7.6,6.46,7.784,6.622,2.835,2.373,5.983,1.485,7.218.137a1.993,1.993,0,0,0-.171-3.035c-6.1-6.1-9.84-9.837-15.873-15.873l-.387-.387q-.331-.329-.663-.663l-.366-.366A18.92,18.92,0,0,0,19.7,1.617h-.025A18.837,18.837,0,0,0,6.264,7.167,14.711,14.711,0,0,0,1.71,19.49c.478,4.3,2.815,8.737,6.582,12.5l.148.149c.024.021.048.045.072.071l.182.18a.808.808,0,0,1-1.131,1.154l-.4-.4C3.125,29.112.623,24.329.1,19.669A16.277,16.277,0,0,1,5.122,6.024,20.441,20.441,0,0,1,19.677,0H19.7A20.524,20.524,0,0,1,34.286,6.049l.369.369c.221.222.438.44.657.657l.39.39c6.033,6.036,9.776,9.778,15.873,15.873a3.6,3.6,0,0,1,.219,5.269c-1.974,2.156-6.147,2.772-9.446.01l-.029-.026c-.271-.235-4.329-3.684-7.764-6.6a.621.621,0,0,0-.842.031C30.545,25.141,19.866,35.668,15.452,40.06a.806.806,0,0,1-.57.235" transform="translate(467 332)" fill="#01675a" stroke="#01675a" stroke-width="0.5"/>
      <path id="Path_28083" data-name="Path 28083" d="M17.831,41.971a.808.808,0,0,1-.57-1.38c2.9-2.89,10.551-10.488,15.081-14.984a.807.807,0,1,1,1.138,1.146C28.951,31.249,21.3,38.847,18.4,41.736a.806.806,0,0,1-.57.235" transform="translate(469.232 335.327)" fill="#01675a" stroke="#01675a" stroke-width="0.5"/>
      <path id="Path_28084" data-name="Path 28084" d="M22.412,46.384a.808.808,0,0,1-.57-1.38C23.967,42.889,32,34.886,36.817,30.093a.808.808,0,0,1,1.14,1.146L22.982,46.149a.806.806,0,0,1-.57.235" transform="translate(469.833 335.915)" fill="#01675a" stroke="#01675a" stroke-width="0.5"/>
      <path id="Path_28085" data-name="Path 28085" d="M27.048,50.85a.808.808,0,0,1-.57-1.38L41.363,34.65a.808.808,0,0,1,1.14,1.145L27.618,50.615a.8.8,0,0,1-.57.235" transform="translate(470.441 336.513)" fill="#01675a" stroke="#01675a" stroke-width="0.5"/>
    </g>
    <rect id="Rectangle_20623" data-name="Rectangle 20623" width="70.262" height="59.384" transform="translate(467 332)" fill="none"/>
  </g>
</svg>
