<?xml version="1.0" encoding="UTF-8"?>
<svg width="92px" height="75px" viewBox="0 0 92 75" version="1.1" xmlns="http://www.w3.org/2000/svg" xmlns:xlink="http://www.w3.org/1999/xlink">
    <!-- Generator: Sketch 53.2 (72643) - https://sketchapp.com -->
    <title>DCU_Illustration_Homepage_Non-Functional_BALANCE SM</title>
    <desc>Created with Sketch.</desc>
    <g id="DCU_Illustration_Homepage_Non-Functional_BALANCE-SM" stroke="none" stroke-width="1" fill="none" fill-rule="evenodd">
        <path d="M21.819,40.3668 C21.817,42.4238 20.417,44.1788 18.475,44.6048 L18.474,45.4598 C18.474,46.1418 17.93,46.6958 17.272,46.6948 C16.613,46.6948 16.07,46.1388 16.071,45.4578 L16.071,44.5908 C14.732,44.2078 13.611,43.2138 13.081,41.8838 C12.851,41.2368 13.186,40.5318 13.811,40.3018 C14.389,40.0938 15.024,40.3608 15.289,40.9268 C15.624,41.7588 16.397,42.2918 17.264,42.2918 L17.276,42.2918 C18.304,42.2928 19.414,41.6938 19.415,40.3758 C19.416,40.0408 19.417,39.0008 17.013,38.4318 C13.293,37.5278 12.752,35.3198 12.753,34.0828 C12.744,32.0258 14.144,30.2708 16.085,29.8458 L16.086,28.9898 C16.087,28.3078 16.631,27.7538 17.289,27.7548 C17.96,27.7558 18.49,28.3108 18.49,28.9918 L18.489,29.8708 C19.829,30.2418 20.938,31.2478 21.48,32.5658 C21.675,33.2248 21.317,33.9178 20.681,34.1138 C20.137,34.2868 19.548,34.0428 19.271,33.5338 C18.937,32.6908 18.163,32.1698 17.297,32.1688 L17.285,32.1688 C16.257,32.1678 15.147,32.7568 15.145,34.0738 C15.145,34.4208 15.144,35.4608 17.547,36.0288 C21.267,36.9228 21.82,39.1298 21.819,40.3668 L21.819,40.3668 Z M84,53.5298 C84,54.2098 83.44,54.7698 82.76,54.7698 L77.12,54.7598 L77.12,60.3998 C77.12,61.0798 76.56,61.6398 75.88,61.6398 L75.87,61.6398 C75.19,61.6398 74.63,61.0798 74.63,60.3898 L74.64,54.7598 L69.01,54.7498 C68.32,54.7498 67.77,54.1998 67.77,53.5098 C67.77,52.8298 68.32,52.2698 69.01,52.2698 L74.64,52.2798 L74.65,46.6398 C74.65,45.9598 75.21,45.3998 75.89,45.3998 C76.58,45.3998 77.13,45.9598 77.13,46.6498 L77.13,52.2798 L82.76,52.2898 C83.45,52.2898 84,52.8398 84,53.5298 L84,53.5298 Z M75.82,65.9398 C68.76,65.9398 63.01,60.1898 63.01,53.1298 C63.01,46.0698 68.76,40.3198 75.82,40.3198 C82.88,40.3198 88.63,46.0698 88.63,53.1298 C88.63,60.1898 82.88,65.9398 75.82,65.9398 L75.82,65.9398 Z M75.79,20.3298 L83.98,40.2098 C81.62,38.7098 78.81,37.8398 75.82,37.8398 C72.79,37.8398 69.96,38.7298 67.58,40.2698 L75.79,20.3298 Z M46.62,12.1798 C45.14,12.1798 43.93,10.9698 43.93,9.4898 C43.93,7.9998 45.14,6.7898 46.62,6.7898 C48.11,6.7898 49.32,7.9998 49.32,9.4898 C49.32,10.9698 48.11,12.1798 46.62,12.1798 L46.62,12.1798 Z M58.71,69.7698 C59.53,70.4798 60.11,71.3998 60.45,72.5098 L32.52,72.5098 C32.99,71.4798 33.83,70.2598 35.33,69.3698 C36.24,68.8298 37.47,68.0898 46.3,68.1298 L46.57,68.1298 C56.92,68.1998 58.09,69.2098 58.71,69.7698 L58.71,69.7698 Z M25.64,24.9298 C23.24,23.3598 20.37,22.4398 17.29,22.4398 C14.23,22.4398 11.38,23.3398 8.99,24.8998 L17.29,4.7898 L25.64,24.9298 Z M17.29,50.5398 C10.23,50.5398 4.49,44.7898 4.49,37.7298 C4.49,30.6698 10.23,24.9198 17.29,24.9198 C24.35,24.9198 30.1,30.6698 30.1,37.7298 C30.1,44.7898 24.35,50.5398 17.29,50.5398 L17.29,50.5398 Z M88.42,44.4898 L77.03,16.7998 C76.82,16.3398 76.37,16.0298 75.86,15.9998 L51.79,9.5998 C51.8,9.5598 51.8,9.5298 51.8,9.4898 C51.8,7.0398 50.1,4.9798 47.81,4.4598 L47.81,1.2398 C47.81,0.5498 47.25,-0.0002 46.57,-0.0002 C45.88,-0.0002 45.32,0.5498 45.32,1.2398 L45.32,4.4798 C43.92,4.8398 42.75,5.7798 42.08,7.0198 L17.67,0.5398 C17.65,0.5298 17.63,0.5198 17.6,0.5198 C17.5,0.4898 17.4,0.4798 17.29,0.4798 L17.28,0.4798 C16.75,0.4798 16.27,0.7998 16.04,1.3098 L4.42,29.4798 C4.41,29.4898 4.4,29.5098 4.4,29.5198 C2.88,31.8998 2,34.7198 2,37.7298 C2,46.1598 8.86,53.0198 17.29,53.0198 C25.72,53.0198 32.58,46.1598 32.58,37.7298 C32.58,34.8298 31.77,32.0998 30.34,29.7798 C30.34,29.7698 30.33,29.7498 30.32,29.7398 L30.32,29.7298 L19.48,3.5898 L41.45,9.4298 L41.45,9.4898 C41.45,11.8898 43.1,13.9198 45.32,14.4998 L45.32,65.6398 C37.34,65.6598 35.56,66.3398 34.06,67.2298 C31.08,69.0098 30.03,71.7198 29.67,73.1798 C29.56,73.6098 29.65,74.0698 29.93,74.4198 C30.22,74.7898 30.65,74.9998 31.12,74.9998 L61.69,74.9998 C62.13,74.9998 62.55,74.8098 62.84,74.4698 C63.11,74.1498 63.24,73.7298 63.17,73.3098 C62.83,71.0598 61.88,69.2398 60.35,67.8998 C59.04,66.7498 57.16,65.7998 47.81,65.6598 L47.81,14.5198 C49.25,14.1898 50.45,13.2498 51.14,11.9998 L74.03,18.0898 L63.04,44.7598 C61.45,47.1698 60.53,50.0498 60.53,53.1298 C60.53,61.5598 67.39,68.4198 75.82,68.4198 C84.25,68.4198 91.11,61.5598 91.11,53.1298 C91.11,49.9298 90.12,46.9498 88.42,44.4898 L88.42,44.4898 Z" id="Fill-1" fill="#01675A"></path>
    </g>
</svg>