<?xml version="1.0" encoding="utf-8"?>
<!-- Generator: Adobe Illustrator 24.0.1, SVG Export Plug-In . SVG Version: 6.00 Build 0)  -->
<svg version="1.1" id="earn_more" xmlns="http://www.w3.org/2000/svg" xmlns:xlink="http://www.w3.org/1999/xlink" x="0px" y="0px"
	 viewBox="0 0 1500 1500" style="enable-background:new 0 0 1500 1500;" xml:space="preserve">
<style type="text/css">
	.st0{fill-rule:evenodd;clip-rule:evenodd;fill:#05A983;}
	.st1{fill:#05A983;}
	.st2{fill:#D4ECEB;}
	.st3{fill:#393A3A;}
	.st4{fill:#77C7AD;}
	.st5{fill:#005B4A;}
	.st6{fill-rule:evenodd;clip-rule:evenodd;fill:#DBEDEB;}
	.st7{fill-rule:evenodd;clip-rule:evenodd;fill:#393A3A;}
	.st8{fill-rule:evenodd;clip-rule:evenodd;fill:#D5F2EF;}
	.st9{fill-rule:evenodd;clip-rule:evenodd;fill:#04AA84;}
	.st10{fill-rule:evenodd;clip-rule:evenodd;fill:#6BD7B4;}
	.st11{fill-rule:evenodd;clip-rule:evenodd;fill:#8BC9B2;}
</style>
<g id="Fill-43_2_">
	<path class="st0" d="M198.94,1163.41c-6.09-8.67-13.64-16.2-22.29-22.29c8.66-6.09,16.2-13.64,22.29-22.31
		c6.09,8.67,13.64,16.22,22.29,22.31C212.58,1147.21,205.03,1154.74,198.94,1163.41 M263.98,1156.51
		c8.5-1.44,14.22-9.49,12.79-17.99c-1.11-6.56-6.25-11.69-12.79-12.81c-25.46-4.24-45.39-24.19-49.64-49.63
		c-1.42-8.5-9.49-14.23-17.99-12.79c-6.56,1.11-11.68,6.23-12.79,12.79c-4.24,25.44-24.19,45.39-49.63,49.63
		c-8.52,1.44-14.23,9.5-12.81,18c1.11,6.56,6.25,11.68,12.81,12.79c25.44,4.24,45.39,24.19,49.63,49.63
		c1.42,8.5,9.49,14.25,17.99,12.81c6.56-1.11,11.69-6.25,12.79-12.81C218.59,1180.7,238.52,1160.75,263.98,1156.51"/>
</g>
<g>
	<g id="Fill-43_3_">
		<path class="st0" d="M181.1,415.21c-4.44-6.32-9.93-11.8-16.24-16.24c6.31-4.44,11.8-9.93,16.24-16.25
			c4.44,6.32,9.93,11.81,16.24,16.25C191.04,403.4,185.54,408.89,181.1,415.21 M228.48,410.18c6.19-1.05,10.36-6.91,9.32-13.1
			c-0.81-4.78-4.55-8.52-9.32-9.33c-18.54-3.09-33.06-17.62-36.16-36.15c-1.04-6.19-6.91-10.37-13.1-9.32
			c-4.78,0.81-8.51,4.54-9.32,9.32c-3.09,18.53-17.62,33.06-36.15,36.15c-6.2,1.05-10.37,6.92-9.33,13.12
			c0.81,4.78,4.55,8.51,9.33,9.32c18.53,3.09,33.06,17.62,36.15,36.15c1.04,6.19,6.91,10.38,13.1,9.33
			c4.78-0.81,8.52-4.55,9.32-9.33C195.42,427.8,209.94,413.27,228.48,410.18"/>
	</g>
</g>
<g>
	<path class="st1" d="M214.58,633.83H327.6c30.72,0,57.16,5.51,79.35,16.54c22.18,11.03,39.18,26.97,51,47.85
		c11.81,20.87,17.72,45.62,17.72,74.23c0,28.88-5.85,53.75-17.52,74.62c-11.68,20.87-28.62,36.82-50.8,47.85
		c-22.19,11.03-48.77,16.54-79.74,16.54H214.58V633.83z M322.48,853.17c27.3,0,47.65-6.69,61.04-20.08s20.08-33.6,20.08-60.64
		c0-27.04-6.69-47.19-20.08-60.45c-13.39-13.25-33.74-19.89-61.04-19.89h-35.44v161.06H322.48z"/>
	<path class="st1" d="M670.39,734.05c14.57,14.05,21.86,35.9,21.86,65.57v111.84h-65.76v-27.17c-3.68,9.45-9.84,16.87-18.51,22.25
		c-8.66,5.38-19.04,8.07-31.11,8.07c-13.39,0-25.47-2.7-36.23-8.07c-10.77-5.38-19.23-12.86-25.4-22.45
		c-6.17-9.58-9.25-20.41-9.25-32.49c0-13.91,3.61-25,10.83-33.27c7.22-8.27,18.71-14.24,34.46-17.92
		c15.75-3.67,37.02-5.51,63.79-5.51h10.63v-4.73c0-9.71-2.23-16.47-6.69-20.28c-4.47-3.8-12.34-5.71-23.63-5.71
		c-8.93,0-19.23,1.77-30.91,5.32c-11.68,3.54-22.64,8.07-32.88,13.58L513.86,737c11.28-6.82,25.4-12.53,42.33-17.13
		c16.93-4.59,32.49-6.89,46.66-6.89C633.3,712.98,655.82,720,670.39,734.05z M616.64,857.7c6.04-6.69,9.06-15.29,9.06-25.79v-4.72
		h-6.3c-16.8,0-28.75,1.51-35.83,4.53c-7.09,3.02-10.63,8.07-10.63,15.16c0,6.04,1.9,11.03,5.71,14.96
		c3.8,3.94,8.72,5.91,14.77,5.91C602.85,867.74,610.59,864.39,616.64,857.7z"/>
	<path class="st1" d="M932.45,718.1L814.31,982.33h-70.88l38.98-84.27L703.26,718.1h73.24l42.53,109.08l44.89-109.08H932.45z"/>
	<path class="st1" d="M969.46,908.69c-15.75-3.94-29.01-9.71-39.77-17.33l17.72-47.65c10.5,6.83,22.45,12.27,35.83,16.34
		c13.39,4.07,26.25,6.1,38.59,6.1c7.61,0,13.52-1.11,17.72-3.35c4.2-2.23,6.3-5.32,6.3-9.25c0-3.41-1.51-6.04-4.53-7.88
		c-3.02-1.83-9.12-3.8-18.31-5.91l-31.11-7.09c-19.69-4.46-33.87-11.03-42.53-19.69c-8.66-8.66-13-21-13-37.02
		c0-12.34,3.67-23.29,11.03-32.88c7.35-9.58,17.65-16.99,30.91-22.25c13.25-5.25,28.28-7.88,45.09-7.88
		c13.91,0,27.76,2.04,41.54,6.1c13.78,4.07,26.32,9.78,37.61,17.13l-18.11,45.68c-10.5-6.56-21.07-11.62-31.7-15.16
		c-10.63-3.54-20.67-5.32-30.12-5.32c-7.62,0-13.52,1.18-17.72,3.54c-4.2,2.36-6.3,5.78-6.3,10.24c0,2.63,1.31,4.79,3.94,6.5
		c2.62,1.71,7.22,3.35,13.78,4.92l32.68,7.48c20.48,4.47,35.31,11.36,44.5,20.67c9.19,9.32,13.78,21.99,13.78,38
		c0,19.17-7.68,34.26-23.04,45.29c-15.36,11.03-36.43,16.54-63.2,16.54C1002.4,914.6,985.21,912.63,969.46,908.69z"/>
</g>
<g>
	<g>
		<g>
			<path class="st2" d="M546.8,240.71h362.38c15.39,0,27.88,12.49,27.88,27.88v306.63c0,15.39-12.49,27.88-27.88,27.88H546.8
				c-15.39,0-27.88-12.49-27.88-27.88V268.59C518.93,253.2,531.41,240.71,546.8,240.71z"/>
			<path class="st3" d="M909.18,615.08H546.8c-21.98,0-39.86-17.88-39.86-39.86V268.59c0-21.98,17.88-39.86,39.86-39.86h362.38
				c21.98,0,39.86,17.88,39.86,39.86v306.63C949.05,597.2,931.16,615.08,909.18,615.08z M546.8,252.7
				c-8.76,0-15.89,7.13-15.89,15.89v306.63c0,8.76,7.13,15.89,15.89,15.89h362.38c8.76,0,15.89-7.13,15.89-15.89V268.59
				c0-8.76-7.13-15.89-15.89-15.89H546.8z"/>
		</g>
		<g>
			<path class="st4" d="M546.98,240.71h362.03c15.49,0,28.05,12.56,28.05,28.05l0.24,58.98H519.17l-0.24-58.98
				C518.93,253.27,531.49,240.71,546.98,240.71z"/>
			<path class="st3" d="M949.34,339.73H507.23l-0.29-70.92c0-22.13,17.96-40.09,40.04-40.09h362.03c22.08,0,40.04,17.96,40.04,40.04
				L949.34,339.73z M531.1,315.76h394.16l-0.19-46.94c0-8.91-7.21-16.12-16.07-16.12H546.98c-8.86,0-16.07,7.21-16.07,16.07
				L531.1,315.76z"/>
		</g>
		<g>
			<path class="st4" d="M630.43,270v-72.52"/>
			<path class="st3" d="M630.43,281.99c-6.62,0-11.99-5.37-11.99-11.99v-72.52c0-6.62,5.37-11.99,11.99-11.99
				s11.99,5.37,11.99,11.99V270C642.41,276.62,637.05,281.99,630.43,281.99z"/>
		</g>
		<g>
			<path class="st4" d="M825.56,270v-72.52"/>
			<path class="st3" d="M825.56,281.99c-6.62,0-11.99-5.37-11.99-11.99v-72.52c0-6.62,5.37-11.99,11.99-11.99
				s11.99,5.37,11.99,11.99V270C837.54,276.62,832.18,281.99,825.56,281.99z"/>
		</g>
	</g>
	<g>
		<path class="st3" d="M794.35,513.2v38.33H665.5v-35.7l59.63-62.74c11.41-12.08,17.11-23.19,17.11-33.34
			c0-12.25-7.17-18.38-21.52-18.38c-6.92,0-14.39,1.44-22.43,4.33c-8.04,2.89-16.12,6.96-24.24,12.21l-14.78-34.13
			c7.26-5.95,16.72-10.72,28.39-14.31c11.67-3.58,23.55-5.38,35.65-5.38c13.13,0,24.67,2.15,34.61,6.43
			c9.94,4.29,17.58,10.37,22.94,18.24c5.35,7.88,8.04,17.06,8.04,27.56c0,10.68-2.12,20.43-6.35,29.27
			c-4.24,8.84-11.45,18.68-21.65,29.53l-36.81,38.06H794.35z"/>
	</g>
</g>
<g>
	<path class="st5" d="M410.26,975.56h181.4v51.41H475.07v48.52h109.34v51.05H475.07v52.86h116.59v51.41h-181.4V975.56z"/>
	<path class="st5" d="M765.62,1067.71c13.4,12.92,20.09,33.01,20.09,60.28v102.83h-60.46v-24.98c-3.38,8.69-9.05,15.51-17.02,20.46
		c-7.97,4.94-17.5,7.42-28.6,7.42c-12.31,0-23.42-2.48-33.31-7.42c-9.9-4.95-17.69-11.82-23.35-20.64
		c-5.67-8.81-8.51-18.76-8.51-29.87c0-12.79,3.32-22.99,9.96-30.59c6.64-7.6,17.2-13.09,31.68-16.47
		c14.48-3.38,34.03-5.07,58.65-5.07h9.78v-4.34c0-8.93-2.05-15.14-6.16-18.65c-4.11-3.5-11.35-5.25-21.72-5.25
		c-8.21,0-17.68,1.63-28.42,4.89c-10.74,3.26-20.82,7.42-30.23,12.49l-16.29-42.36c10.38-6.27,23.35-11.52,38.92-15.75
		c15.57-4.22,29.87-6.34,42.91-6.34C731.52,1048.34,752.22,1054.8,765.62,1067.71z M716.2,1181.4c5.55-6.15,8.33-14.06,8.33-23.71
		v-4.34h-5.79c-15.45,0-26.43,1.39-32.95,4.16c-6.52,2.78-9.78,7.42-9.78,13.94c0,5.55,1.75,10.14,5.25,13.76
		c3.5,3.62,8.02,5.43,13.58,5.43C703.53,1190.63,710.64,1187.55,716.2,1181.4z"/>
	<path class="st5" d="M959.14,1100.84l-35.12,3.62c-14,1.45-23.78,5.19-29.33,11.22c-5.56,6.04-8.33,14.61-8.33,25.71v89.43h-64.45
		v-178.14h61.19v30.78c4.1-10.86,10.86-19.13,20.28-24.8c9.41-5.67,20.88-8.87,34.4-9.59l17.74-1.45L959.14,1100.84z"/>
	<path class="st5" d="M973.62,975.56h64.45v255.26h-64.45V975.56z"/>
	<path class="st5" d="M1260.01,1053.04l-108.62,242.95h-65.17l35.84-77.48l-72.78-165.47h67.34l39.1,100.29l41.28-100.29H1260.01z"
		/>
</g>
<g id="Fill-3">
	<polygon class="st6" points="1351.11,470.05 1349.94,470.4 1349.73,470.05 	"/>
</g>
<g id="Fill-68">
	<polygon class="st7" points="1349.74,470.05 1349.94,470.4 1351.11,470.05 	"/>
</g>
<g id="Fill-70">
	<path class="st7" d="M1349.74,470.05l0.2,0.34l1.17-0.34H1349.74z M1349.74,470.05l0.2,0.34l1.17-0.34H1349.74z M1349.74,470.05
		l0.2,0.34l1.17-0.34H1349.74z M1349.74,470.05l0.2,0.34l1.17-0.34H1349.74z M1349.74,470.05l0.2,0.34l1.17-0.34H1349.74z"/>
</g>
<g>
	<g id="Fill-1">
		<path class="st8" d="M1203.28,418.51l-52.33,31c-1.09-2.71-1.7-5.57-1.7-8.42c0-12.45,10.13-22.58,22.58-22.58H1203.28z"/>
	</g>
	<g id="Fill-5">
		<polygon class="st8" points="1404.88,418.51 1404.88,463.65 1390.19,463.65 1380.06,418.51 		"/>
	</g>
	<g id="Fill-62">
		<path class="st9" d="M1337.25,561.36c0,24.97,20.16,45.14,45.14,45.14h22.49v52.64h-233.05c-12.45,0-22.58-10.13-22.58-22.57
			V471.15c0.31,0.24,0.7,0.39,0.93,0.62c0.61,0.39,1.31,0.77,1.93,1.15c1.24,0.85,2.63,1.55,3.95,2.17c0.77,0.39,1.47,0.7,2.25,1
			c1.46,0.55,2.94,1.01,4.48,1.4c0.69,0.15,1.39,0.39,2.09,0.46c2.31,0.46,4.63,0.69,6.96,0.69h233.05v37.65h-22.49
			C1357.41,516.29,1337.25,536.46,1337.25,561.36"/>
	</g>
	<g id="Fill-64">
		<path class="st10" d="M1374.81,463.65h-202.98c-1.01-0.08-1.93-0.16-2.94-0.31l39.8-11.9l122.52-36.72l23.57-7.11l6.96-2.09
			l0.47,2.09L1374.81,463.65z"/>
	</g>
	<g id="Fill-66">
		<polygon class="st10" points="1319.93,402.35 1302.38,407.61 1198.81,438.68 1251.44,407.61 1304.54,376.23 		"/>
	</g>
	<g id="Fill-72">
		<path class="st7" d="M1402.95,657.2h-231.12c-11.36,0-20.64-9.28-20.64-20.64V474.63c1.32,0.85,2.72,1.55,4.03,2.16
			c0.77,0.46,1.54,0.77,2.39,1.09c1.56,0.61,3.1,1.09,4.79,1.46l0.62,0.24c0.54,0.08,1.08,0.24,1.46,0.31
			c2.41,0.46,4.87,0.69,7.34,0.69h231.12v33.79h-20.56c-25.98,0-47.08,21.1-47.08,46.99c0,25.98,21.11,47.08,47.08,47.08h20.56
			V657.2z M1171.82,420.45h24.43l-44.21,26.2c-0.55-1.86-0.86-3.72-0.86-5.57C1151.18,429.72,1160.46,420.45,1171.82,420.45
			L1171.82,420.45z M1303.85,378.86l13.14,22.33l-103.49,31.07L1303.85,378.86z M1329.44,407.61l-1.32,0.39l-0.23-0.39H1329.44z
			 M1360.28,408l12.13,53.73H1181.1L1360.28,408z M1402.95,420.45v41.28h-11.21l-9.28-41.28H1402.95z M1382.39,533.21h50.62v56.27
			h-50.62c-15.55,0-28.22-12.6-28.22-28.14C1354.17,545.81,1366.84,533.21,1382.39,533.21L1382.39,533.21z M1442.52,514.36h-20.63
			V411.01c0-5.17-4.25-9.43-9.43-9.43h-34.24l-1.71-7.73c-0.54-2.39-2.01-4.48-4.18-5.87c-2.15-1.31-4.63-1.77-6.65-1.24
			c-0.15,0-0.39,0-0.54,0.08l-29.45,8.74l-20.41-34.48c-2.7-4.56-8.43-6.02-12.99-3.25l-74.05,43.75h-56.43
			c-21.79,0-39.5,17.71-39.5,39.5v195.48c0,21.8,17.71,39.5,39.5,39.5h240.63c5.18,0,9.43-4.25,9.43-9.43v-58.2h20.63
			c5.18,0,9.43-4.26,9.43-9.43v-75.22C1451.94,518.61,1447.7,514.36,1442.52,514.36L1442.52,514.36z"/>
	</g>
	<g id="Fill-74">
		<path class="st11" d="M1382.39,576.42c-8.35,0-15.07-6.72-15.07-15.07c0-8.27,6.72-14.99,15.07-14.99
			c8.27,0,14.99,6.72,14.99,14.99C1397.38,569.7,1390.65,576.42,1382.39,576.42L1382.39,576.42z M1382.39,531.29
			c-16.62,0-30.15,13.45-30.15,30.06c0,16.62,13.53,30.07,30.15,30.07h52.56v-60.14H1382.39z"/>
	</g>
	<g id="Fill-76">
		<path class="st7" d="M1397.38,561.36c0,8.34-6.72,15.07-14.99,15.07c-8.35,0-15.07-6.73-15.07-15.07c0-8.27,6.72-15,15.07-15
			C1390.66,546.36,1397.38,553.09,1397.38,561.36"/>
	</g>
</g>
<g>
	<path class="st3" d="M227.85,335.01c-3.49,0-7-1.23-9.82-3.73c-6.12-5.43-6.69-14.79-1.26-20.91
		c37.46-42.26,80.15-79.69,126.9-111.24c6.78-4.58,15.99-2.79,20.56,3.99c4.58,6.78,2.79,15.99-3.99,20.56
		c-44.68,30.16-85.5,65.94-121.3,106.34C236.01,333.33,231.94,335.01,227.85,335.01z"/>
</g>
<g>
	<path class="st3" d="M1219.66,350.49c-4.25,0-8.46-1.82-11.39-5.34c-121.86-146.41-300.88-230.38-491.16-230.38
		c-52.81,0-105.31,6.46-156.03,19.19c-49.25,12.37-97.03,30.69-142,54.46c-7.23,3.82-16.19,1.06-20.02-6.17s-1.06-16.19,6.17-20.02
		c47.07-24.88,97.08-44.06,148.63-57c53.08-13.33,108.01-20.08,163.25-20.08c199.1,0,386.42,87.86,513.93,241.06
		c5.23,6.29,4.38,15.63-1.91,20.86C1226.36,349.37,1223,350.49,1219.66,350.49z"/>
</g>
<g>
	<path class="st3" d="M1309.59,1044.49c-2.1,0-4.23-0.45-6.26-1.39c-7.41-3.46-10.61-12.27-7.15-19.69
		c39.59-84.78,59.66-175.59,59.66-269.92c0-0.58,0-1.17-0.01-1.75l-0.01-1.35c-0.04-8.18,6.56-14.84,14.74-14.88
		c0.02,0,0.05,0,0.07,0c8.15,0,14.77,6.59,14.81,14.74l0.01,1.23c0.01,0.67,0.01,1.34,0.01,2.01c0,98.68-21.01,193.71-62.44,282.45
		C1320.51,1041.33,1315.17,1044.49,1309.59,1044.49z"/>
</g>
<g>
	<path class="st3" d="M717.11,1421.85c-169.83,0-331.72-63.77-455.83-179.57c-5.98-5.58-6.31-14.95-0.73-20.93
		c5.58-5.98,14.95-6.31,20.93-0.73c118.61,110.66,273.32,171.61,435.62,171.61c52.46,0,104.61-6.37,155.02-18.94
		c48.95-12.21,96.46-30.29,141.21-53.77c7.24-3.8,16.2-1.01,20,6.24c3.8,7.24,1.01,16.2-6.24,20
		c-46.84,24.57-96.57,43.5-147.8,56.27C826.55,1415.18,771.98,1421.85,717.11,1421.85z"/>
</g>
<g>
	<path class="st3" d="M134.02,1063.73c-5.4,0-10.61-2.96-13.22-8.11c-23.28-45.86-41.21-94.42-53.29-144.33
		C55.07,859.92,48.76,806.83,48.76,753.5c0-98.34,20.88-193.09,62.06-281.6c3.45-7.42,12.26-10.63,19.68-7.18
		c7.42,3.45,10.63,12.26,7.18,19.68c-39.35,84.57-59.3,175.11-59.3,269.11c0,50.99,6.03,101.73,17.91,150.82
		c11.54,47.68,28.68,94.08,50.92,137.89c3.7,7.29,0.79,16.21-6.5,19.91C138.56,1063.21,136.27,1063.73,134.02,1063.73z"/>
</g>
</svg>
