<?xml version="1.0" encoding="utf-8"?>
<!-- Generator: Adobe Illustrator 24.0.1, SVG Export Plug-In . SVG Version: 6.00 Build 0)  -->
<svg version="1.1" id="earn_more" xmlns="http://www.w3.org/2000/svg" xmlns:xlink="http://www.w3.org/1999/xlink" x="0px" y="0px"
	 viewBox="0 0 1500 1500" style="enable-background:new 0 0 1500 1500;" xml:space="preserve">
<style type="text/css">
	.st0{fill-rule:evenodd;clip-rule:evenodd;fill:#05A983;}
	.st1{fill:#393A3A;}
	.st2{fill-rule:evenodd;clip-rule:evenodd;fill:#77C7AD;}
	.st3{fill-rule:evenodd;clip-rule:evenodd;fill:#3A3A3A;}
	.st4{fill:#005B4A;}
	.st5{fill:#05A983;}
	.st6{fill-rule:evenodd;clip-rule:evenodd;fill:#D4ECEB;}
	.st7{fill-rule:evenodd;clip-rule:evenodd;fill:#4DA585;}
	.st8{fill-rule:evenodd;clip-rule:evenodd;fill:#393A3A;}
</style>
<g id="Fill-43_2_">
	<path class="st0" d="M1272.66,1207.77c-6.09-8.67-13.64-16.2-22.29-22.29c8.66-6.09,16.2-13.64,22.29-22.31
		c6.09,8.67,13.64,16.22,22.29,22.31C1286.3,1191.56,1278.75,1199.09,1272.66,1207.77 M1337.7,1200.86
		c8.5-1.44,14.22-9.49,12.79-17.99c-1.11-6.56-6.25-11.69-12.79-12.81c-25.46-4.24-45.39-24.19-49.64-49.63
		c-1.42-8.5-9.49-14.23-17.99-12.79c-6.56,1.11-11.68,6.23-12.79,12.79c-4.24,25.44-24.19,45.39-49.63,49.63
		c-8.52,1.44-14.23,9.5-12.81,18c1.11,6.56,6.25,11.68,12.81,12.79c25.44,4.24,45.39,24.19,49.63,49.63
		c1.42,8.5,9.49,14.25,17.99,12.81c6.56-1.11,11.69-6.25,12.79-12.81C1292.31,1225.05,1312.24,1205.1,1337.7,1200.86"/>
</g>
<g>
	<path class="st1" d="M891.37,1407.63c-7.48,0-13.98-5.55-14.98-13.17c-1.09-8.29,4.75-15.88,13.04-16.97
		c47.6-6.24,94.46-17.93,139.3-34.75c43.83-16.44,85.94-37.86,125.17-63.66c6.98-4.59,16.36-2.66,20.95,4.33
		c4.59,6.98,2.66,16.36-4.33,20.95c-41.11,27.04-85.24,49.49-131.17,66.71c-46.99,17.63-96.12,29.88-146,36.42
		C892.69,1407.59,892.03,1407.63,891.37,1407.63z"/>
</g>
<g>
	<path class="st1" d="M806.32,1413.16c-121.54,0-240.43-33.16-343.8-95.89c-19.85-12.05-39.3-25.29-57.8-39.38
		c-6.65-5.06-7.94-14.55-2.87-21.2c5.06-6.65,14.55-7.93,21.2-2.87c17.66,13.44,36.22,26.09,55.17,37.59
		c98.64,59.86,212.1,91.5,328.1,91.5c8.36,0,15.13,6.77,15.13,15.13S814.68,1413.16,806.32,1413.16z"/>
</g>
<g>
	<path class="st1" d="M205.36,1008.78c-5.97,0-11.63-3.56-14.02-9.43c-13.3-32.72-24.04-66.77-31.92-101.2
		c-11.08-48.45-16.7-98.44-16.7-148.58c0-84.49,15.67-166.8,46.56-244.66c3.08-7.77,11.87-11.56,19.64-8.48
		c7.77,3.08,11.56,11.88,8.48,19.64c-29.48,74.29-44.43,152.85-44.43,233.5c0,47.88,5.36,95.6,15.94,141.84
		c7.52,32.85,17.76,65.34,30.45,96.55c3.15,7.74-0.58,16.57-8.32,19.71C209.19,1008.42,207.26,1008.78,205.36,1008.78z"/>
</g>
<g>
	<path class="st1" d="M229.49,468.09c-2.33,0-4.7-0.54-6.92-1.68c-7.43-3.83-10.35-12.95-6.52-20.38
		c19.29-37.44,42.3-73.24,68.41-106.43c5.17-6.57,14.68-7.7,21.25-2.54s7.7,14.68,2.54,21.25c-24.92,31.67-46.88,65.85-65.29,101.58
		C240.27,465.1,234.97,468.09,229.49,468.09z"/>
</g>
<g>
	<path class="st1" d="M488.46,199.34c-5.28,0-10.42-2.77-13.19-7.7c-4.1-7.28-1.53-16.51,5.75-20.61
		c48.62-27.4,100.57-48.54,154.39-62.85c55.47-14.75,112.98-22.22,170.91-22.22c84.73,0,167.27,15.75,245.32,46.83
		c7.76,3.09,11.55,11.89,8.46,19.65c-3.09,7.76-11.88,11.55-19.65,8.46c-74.47-29.65-153.25-44.68-234.13-44.68
		c-55.31,0-110.2,7.13-163.14,21.21c-51.35,13.65-100.91,33.83-147.31,59.97C493.52,198.71,490.97,199.34,488.46,199.34z"/>
</g>
<g>
	<path class="st1" d="M1434.84,924.97c-1.23,0-2.49-0.15-3.74-0.47c-8.1-2.06-12.99-10.29-10.94-18.39
		c12.93-50.87,19.49-103.54,19.49-156.55c0-8.36,6.77-15.13,15.13-15.13s15.13,6.77,15.13,15.13c0,55.52-6.87,110.7-20.42,164.01
		C1447.76,920.41,1441.6,924.97,1434.84,924.97z"/>
</g>
<g id="Group-4_1_" transform="translate(3.000000, 144.000000)">
	<g id="Fill-1_1_">
		<path class="st2" d="M50.06,842.11c0-17.41,41.21-36.87,96.25-36.87c55.16,0,96.25,19.36,96.25,36.81
			c0,17.4-41.2,36.87-96.25,36.87C91.27,878.91,50.06,859.56,50.06,842.11"/>
	</g>
	<g id="Fill-3_1_">
		<path class="st0" d="M213.63,1165.74v-11.29c3.33,2.5,7.11,4.83,11.29,7c20.52,10.73,50.54,17.35,85.02,17.35
			c41.48,0,76.45-9.45,96.3-24.4v27.36c0,17.28-41.2,36.58-96.3,36.58c-55.16,0-96.31-19.29-96.31-36.53V1165.74
			c1.45-0.51,2.88-1.02,4.27-1.53C216.52,1164.73,215.09,1165.24,213.63,1165.74"/>
	</g>
	<g id="Fill-5_1_">
		<path class="st0" d="M178.34,1114.38c-0.67-4.83-5.12-8.23-9.95-7.56c-5.67,0.78-11.4,1.06-17.13,0.84h-5.06
			c-55.1,0-96.24-19.41-96.24-36.86v-27.52c19.86,14.9,54.82,24.47,96.24,24.47h8.29c5.45,0.05,10.84-0.28,16.18-1.05
			c4.67-0.56,8.06-4.73,7.67-9.41c-0.67-4.78-5.05-8.11-9.89-7.5c-5.67,0.78-11.4,1.05-17.13,0.88h-5
			c-55.16,0-96.25-19.45-96.25-36.86v-27.58c19.85,14.9,54.77,24.52,96.25,24.52h8.28c5.39,0.05,10.79-0.34,16.13-1.06
			c4.89-0.61,8.33-5.06,7.67-9.85c-0.61-4.83-5.06-8.22-9.95-7.61c-5.67,0.78-11.4,1.05-17.13,0.88h-5
			c-55.16,0-96.25-19.46-96.25-36.86v-27.58c19.85,14.9,54.66,24.52,96.25,24.52c41.53,0,76.39-9.51,96.24-24.52v8.73
			c0,4,2.72,7.39,6.45,8.4c-0.06,7.73-0.11,15.45-0.16,23.18c-30.42,9.51-49.72,25.8-49.72,45.04c-0.06,1.05-0.06,2.05,0,3.11
			c-0.06,0.5-0.06,1.05,0,1.56v154.67c-6.55,1.61-13.62,3-21.13,4.01c1.23-1.89,1.67-4.28,1.05-6.67c-1.17-4.67-6-7.56-10.67-6.4
			c-5.67,0.83-11.4,1.11-17.13,0.89h-5.06c-55.1,0-96.24-19.45-96.24-36.86v-27.59c19.86,14.96,54.82,24.53,96.24,24.53h8.29
			c5.45,0.05,10.84-0.28,16.18-1.06C175.51,1123.62,178.96,1119.22,178.34,1114.38"/>
	</g>
	<g id="Fill-7_1_">
		<path class="st3" d="M32.33,842.11c-0.06,1.05-0.06,2.11,0,3.17c-0.06,0.5-0.06,1,0,1.55v281.41c0,30.96,48.93,54.32,113.87,54.32
			h8.28c5.46,0.05,10.84-0.28,16.18-1.05c0.67,0,1.34-0.06,2.01-0.23c2.34-0.55,4.16-2,5.33-3.88c1.23-1.89,1.66-4.3,1.06-6.68
			c-1.17-4.67-6.01-7.56-10.68-6.39c-5.67,0.83-11.39,1.11-17.12,0.89h-5.06c-55.1,0-96.25-19.46-96.25-36.86v-27.58
			c19.85,14.96,54.83,24.52,96.25,24.52h8.28c5.46,0.05,10.84-0.27,16.18-1.05c4.85-0.61,8.28-5.01,7.68-9.84
			c-0.67-4.85-5.12-8.24-9.96-7.57c-5.67,0.78-11.39,1.06-17.12,0.84h-5.06c-55.1,0-96.25-19.41-96.25-36.86v-27.52
			c19.85,14.9,54.83,24.47,96.25,24.47h8.28c5.46,0.06,10.84-0.28,16.18-1.05c4.67-0.55,8.06-4.73,7.68-9.41
			c-0.67-4.77-5.07-8.11-9.9-7.51c-5.67,0.78-11.4,1.07-17.12,0.9h-5.01c-55.16,0-96.25-19.46-96.25-36.86v-27.58
			c19.86,14.89,54.77,24.52,96.25,24.52h8.28c5.39,0.06,10.79-0.33,16.12-1.05c4.89-0.62,8.35-5.07,7.67-9.85
			c-0.61-4.83-5.05-8.22-9.95-7.61c-5.67,0.78-11.4,1.05-17.12,0.88h-5.01c-55.16,0-96.25-19.45-96.25-36.86v-27.59
			c19.86,14.91,54.66,24.52,96.25,24.52c41.54,0,76.39-9.51,96.24-24.52v8.73c0,4,2.72,7.4,6.45,8.39c0.73,0.22,1.56,0.35,2.39,0.35
			c4.84,0,8.79-3.9,8.79-8.73v-90.58c0.06-0.55,0.06-1.05,0-1.55c0.06-1.05,0.06-2.11,0-3.17c0-30.92-48.93-54.33-113.87-54.33
			C81.48,787.78,32.5,811.19,32.33,842.11L32.33,842.11z M50.07,871.85c19.86,14.9,54.66,24.47,96.25,24.47
			c41.54,0,76.39-9.51,96.24-24.47v26.86c0,17.4-41.2,36.86-96.24,36.86c-55.04,0-96.19-19.46-96.25-36.86V871.85z M50.07,842.11
			c0-17.41,41.21-36.86,96.25-36.86c55.15,0,96.24,19.34,96.24,36.8c0,17.4-41.2,36.87-96.24,36.87
			C91.27,878.91,50.07,859.57,50.07,842.11L50.07,842.11z"/>
	</g>
	<g id="Fill-9_1_">
		<path class="st0" d="M50.06,871.85c19.86,14.91,54.66,24.47,96.25,24.47c41.54,0,76.39-9.51,96.25-24.47v26.85
			c0,17.41-41.2,36.87-96.25,36.87c-55.04,0-96.19-19.46-96.25-36.87V871.85z"/>
	</g>
	<g id="Fill-11_1_">
		<path class="st2" d="M213.76,1011.68c0-9.35,12.13-19.29,31.97-26.47c16.79-6.05,39.09-10.12,64.33-10.12
			c55.1,0,96.19,19.41,96.19,36.59c0,17.24-41.04,36.47-96.19,36.47c-25.41,0-47.88-4.06-64.66-10.12v-0.06
			C225.71,1030.91,213.76,1021.02,213.76,1011.68"/>
	</g>
	<g id="Fill-13_1_">
		<path class="st3" d="M196.14,1011.62c-0.06,1.05-0.06,2.06,0,3.11c-0.06,0.5-0.06,1.07,0,1.57v165.52
			c0,30.86,48.98,53.93,113.92,53.93c64.95,0,113.93-23.18,113.93-53.93v-165.42c0.06-0.54,0.06-1.05,0-1.55
			c0.06-1.05,0.06-2.11,0-3.17c0-30.7-48.98-53.94-113.93-53.94c-24.18,0-46.21,3.23-64.22,8.84
			C215.43,976.08,196.14,992.38,196.14,1011.62L196.14,1011.62z M406.26,1011.68c0,17.24-41.04,36.47-96.19,36.47
			c-25.41,0-47.87-4.05-64.66-10.12v-0.06c-19.68-7.05-31.64-16.96-31.64-26.29c0-9.34,12.13-19.29,31.97-26.46
			c16.8-6.07,39.09-10.12,64.33-10.12C365.16,975.09,406.26,994.5,406.26,1011.68L406.26,1011.68z M406.26,1067.89
			c0,17.29-41.04,36.64-96.19,36.64c-25.63,0-48.2-4.17-65.05-10.39c-19.46-7.13-31.25-16.96-31.25-26.25v-26.75
			c8.12,6.05,18.86,11.23,31.47,15.18v0.06c18.18,5.78,40.37,9.06,64.83,9.06c41.48,0,76.46-9.34,96.19-24.24V1067.89z
			 M213.76,1154.45c3.34,2.51,7.13,4.84,11.29,7.01c20.53,10.74,50.55,17.35,85.02,17.35c41.48,0,76.46-9.44,96.31-24.4v27.35
			c0,17.3-41.2,36.59-96.31,36.59c-55.16,0-96.31-19.29-96.31-36.54V1154.45z M213.71,1097.52c8.12,6,18.68,11.18,31.19,15.13
			c18.18,5.83,40.43,9.17,65.05,9.17c41.59,0,76.45-9.45,96.31-24.3v27.36c0,17.18-41.04,36.58-96.19,36.58
			c-25.8,0-48.54-4.23-65.44-10.45c-19.18-7.18-30.86-16.9-30.86-26.12L213.71,1097.52z"/>
	</g>
	<g id="Fill-15_1_">
		<path class="st0" d="M213.58,1097.52c8.12,6.01,18.68,11.18,31.2,15.13c18.18,5.83,40.41,9.17,65.05,9.17
			c41.59,0,76.46-9.45,96.31-24.3v27.36c0,17.19-41.04,36.58-96.19,36.58c-25.8,0-48.54-4.22-65.45-10.45
			c-19.18-7.18-30.86-16.9-30.86-26.13L213.58,1097.52z"/>
	</g>
	<g id="Fill-17_1_">
		<path class="st0" d="M213.63,1041.14c8.12,6.06,18.86,11.24,31.47,15.18v0.06c18.19,5.78,40.37,9.06,64.84,9.06
			c41.48,0,76.45-9.33,96.19-24.24v26.7c0,17.28-41.04,36.63-96.19,36.63c-25.63,0-48.2-4.17-65.06-10.39
			c-19.45-7.12-31.25-16.96-31.25-26.24V1041.14z"/>
	</g>
</g>
<g>
	<g>
		<path class="st4" d="M639.58,730.59v328.18h-74.49V886.53l-63.3,117.77h-54.94l-62.83-114.98l-0.47,169.45h-74.49V730.59h67.51
			l98.69,186.67l98.22-186.67H639.58z"/>
	</g>
	<g>
		<path class="st4" d="M743.61,1047.84c-19.11-9.78-33.83-23.66-44.22-41.68c-10.42-17.99-15.62-39.1-15.62-63.3
			s5.2-45.21,15.62-63.08c10.39-17.84,25.04-31.55,43.98-41.18c18.93-9.63,41.13-14.43,66.57-14.43s47.64,4.8,66.57,14.43
			c18.93,9.63,33.58,23.34,44,41.18c10.39,17.87,15.59,38.88,15.59,63.08s-5.2,45.31-15.59,63.3c-10.42,18.02-25.07,31.9-44,41.68
			c-18.93,9.78-41.13,14.65-66.57,14.65C784.8,1062.49,762.7,1057.61,743.61,1047.84z M854.16,942.86
			c0-38.48-14.75-57.71-44.22-57.71s-44.22,19.23-44.22,57.71c0,38.48,14.75,57.74,44.22,57.74S854.16,981.34,854.16,942.86z"/>
	</g>
	<g>
		<path class="st4" d="M1150.22,891.65l-45.14,4.65c-18.02,1.86-30.59,6.68-37.72,14.43c-7.15,7.77-10.72,18.78-10.72,33.06v114.98
			h-82.86V829.73h78.67v39.57c5.27-13.96,13.96-24.57,26.06-31.88c12.13-7.3,26.85-11.41,44.22-12.35l22.82-1.86L1150.22,891.65z"/>
	</g>
	<g>
		<path class="st4" d="M1375.52,960.08h-141.51c2.47,14.9,7.89,25.61,16.28,32.12c8.39,6.51,20.32,9.78,35.83,9.78
			c11.19,0,22.5-1.86,34-5.59c11.46-3.71,21.7-8.83,30.71-15.34l20.96,54.44c-11.51,8.39-25.32,15-41.45,19.8
			c-16.14,4.8-32.27,7.2-48.41,7.2c-26.38,0-49.2-4.8-68.43-14.43c-19.25-9.6-34.05-23.41-44.45-41.43
			c-10.42-17.99-15.62-39.1-15.62-63.3c0-22.97,4.9-43.53,14.68-61.67c9.78-18.16,23.44-32.27,40.96-42.37
			c17.55-10.07,37.32-15.12,59.37-15.12c32.89,0,58.95,10.47,78.2,31.4c19.23,20.96,28.86,49.59,28.86,85.9V960.08z M1233.07,920.98
			h73.08c-1.86-27.3-13.66-40.96-35.36-40.96C1248.74,880.02,1236.17,893.68,1233.07,920.98z"/>
	</g>
</g>
<g>
	<path class="st5" d="M307.51,466.22h156.93v44.48H363.58v41.97h94.6v44.17h-94.6v45.73h100.86v44.48H307.51V466.22z"/>
	<path class="st5" d="M614.94,545.94c11.59,11.17,17.38,28.56,17.38,52.15v88.96h-52.31v-21.61c-2.93,7.52-7.83,13.42-14.72,17.7
		c-6.89,4.28-15.14,6.42-24.75,6.42c-10.65,0-20.26-2.14-28.82-6.42c-8.56-4.28-15.3-10.23-20.2-17.85
		c-4.91-7.62-7.36-16.23-7.36-25.84c0-11.07,2.87-19.89,8.61-26.47c5.74-6.58,14.88-11.33,27.41-14.25
		c12.53-2.92,29.44-4.39,50.74-4.39h8.46v-3.76c0-7.72-1.78-13.1-5.33-16.13c-3.55-3.02-9.82-4.54-18.79-4.54
		c-7.1,0-15.3,1.41-24.59,4.23c-9.29,2.82-18.01,6.42-26.15,10.81l-14.1-36.65c8.98-5.43,20.2-9.97,33.67-13.63
		c13.47-3.65,25.84-5.48,37.12-5.48C585.44,529.18,603.35,534.77,614.94,545.94z M572.18,644.3c4.8-5.32,7.2-12.16,7.2-20.52v-3.76
		h-5.01c-13.37,0-22.87,1.2-28.5,3.6c-5.64,2.4-8.46,6.42-8.46,12.06c0,4.81,1.51,8.77,4.54,11.9c3.02,3.13,6.94,4.7,11.75,4.7
		C561.22,652.28,567.38,649.62,572.18,644.3z"/>
	<path class="st5" d="M782.36,574.6l-30.38,3.13c-12.11,1.25-20.57,4.49-25.37,9.71c-4.81,5.22-7.2,12.64-7.2,22.24v77.37h-55.76
		V532.94h52.94v26.62c3.55-9.4,9.4-16.55,17.54-21.46c8.14-4.9,18.06-7.67,29.76-8.3l15.35-1.25L782.36,574.6z"/>
	<path class="st5" d="M939.6,545.63c8.98,10.96,13.47,27.62,13.47,49.96v91.46h-55.75v-88.96c0-9.19-1.62-15.87-4.86-20.05
		c-3.24-4.17-8.09-6.26-14.57-6.26c-8.35,0-14.99,2.66-19.89,7.99c-4.91,5.32-7.36,12.48-7.36,21.46v85.83h-55.75V532.94h54.19
		v20.67c5.43-7.93,12.42-13.99,20.99-18.17c8.56-4.17,18.06-6.26,28.5-6.26C916.94,529.18,930.62,534.67,939.6,545.63z"/>
</g>
<g id="Group-2_2_" transform="translate(42.000000, 54.000000)">
	<g id="Fill-19_2_">
		<polygon class="st0" points="1189.11,103.99 1174,140.27 1104.59,140.27 1089.47,103.99 		"/>
	</g>
	<g id="Fill-23_2_">
		<path class="st6" d="M1311.44,507.02v104.36h-184.28c-8.22,0-16.28-2.22-23.27-6.48l-104.3-62.53c-7-4.2-9.91-12.83-6.89-20.36
			c3.33-8.34,12.78-12.42,21.12-9.1c0.29,0.12,0.52,0.24,0.82,0.35l93.69,42.94c1.22,0.52,2.5,0.82,3.79,0.82h90.59
			c5.01,0,9.04-4.03,9.04-9.04c0-5.02-4.03-9.1-9.04-9.1h-72.45c-10.04,0-18.14-8.11-18.14-18.09c0-10.03,8.11-18.14,18.14-18.14
			h69.41c1.52,0,3.04-0.35,4.38-1.11l4.32-2.33C1241.21,481.12,1281.69,484.21,1311.44,507.02"/>
	</g>
	<g id="Fill-25_2_">
		<path class="st6" d="M1238.93,171.95c0,7.53-6.07,13.59-13.59,13.59h-4.49c-5.01,0-9.1,4.09-9.1,9.1v81.5
			c0,5.02-4.03,9.1-9.04,9.1h-190.23V158.36h27.18c2.39,0,4.67-0.93,6.36-2.62l32.02-32.02l12.14,29.11
			c1.4,3.39,4.66,5.54,8.34,5.54h126.82C1232.86,158.36,1238.93,164.48,1238.93,171.95"/>
	</g>
	<g id="Fill-27_2_">
		<path class="st0" d="M1266.11,426.34c0,14.88-3.32,29.58-9.69,43.05c-19.83-0.41-39.37,4.37-56.76,13.88l-2.28,1.28h-67.14
			c-20,0-36.28,16.21-36.28,36.22c0,3.21,0.46,6.42,1.28,9.51l-35.23-16.16c-29.29-19.71-47.02-52.5-47.55-87.79
			c0.35-45.5,19.43-88.84,52.67-119.88l3.27-3.15h141.75l3.26,3.15C1246.69,337.5,1265.7,380.84,1266.11,426.34"/>
	</g>
	<g id="Fill-29_2_">
		<polygon class="st0" points="885.6,285.23 994.33,285.23 994.33,158.36 885.6,158.36 		"/>
	</g>
	<g id="Fill-31_2_">
		<polygon class="st7" points="1329.58,611.38 1392.99,611.38 1392.99,511.74 1329.58,511.74 		"/>
	</g>
	<g id="Fill-39_2_">
		<polygon class="st8" points="958.09,267.09 976.21,267.09 976.21,248.97 958.09,248.97 		"/>
	</g>
	<g id="Combined-Shape_2_">
		<path class="st8" d="M1314.99,614.65c-0.13,0.02-0.25,0.03-0.38,0.05C1314.74,614.68,1314.87,614.67,1314.99,614.65
			L1314.99,614.65z M1329.58,611.38h63.41v-99.64h-63.41V611.38z M1311.44,611.38V507.02c-29.75-22.81-70.23-25.9-103.08-7.82
			l-4.32,2.33c-1.34,0.76-2.86,1.11-4.38,1.11h-69.41c-10.04,0-18.14,8.11-18.14,18.14c0,9.97,8.11,18.08,18.14,18.08h72.45
			c5.01,0,9.04,4.09,9.04,9.1c0,5.01-4.03,9.04-9.04,9.04h-90.59c-1.28,0-2.56-0.3-3.79-0.82l-93.69-42.94
			c-0.3-0.11-0.52-0.23-0.82-0.35c-8.34-3.32-17.79,0.76-21.12,9.1c-3.03,7.53-0.12,16.16,6.88,20.36l104.3,62.53
			c7,4.26,15.05,6.48,23.27,6.48H1311.44z M1012.47,426.34c0.53,35.29,18.26,68.08,47.55,87.79l35.23,16.16
			c-0.82-3.09-1.28-6.3-1.28-9.51c0-20.01,16.28-36.23,36.28-36.23h67.14l2.27-1.28c17.39-9.51,36.93-14.29,56.76-13.88
			c6.36-13.47,9.69-28.17,9.69-43.05c-0.41-45.5-19.43-88.84-52.68-119.87l-3.27-3.15h-141.75l-3.27,3.15
			C1031.9,337.5,1012.83,380.84,1012.47,426.34z M1012.47,285.23h190.23c5.01,0,9.04-4.09,9.04-9.1v-81.5c0-5.02,4.08-9.1,9.1-9.1
			h4.49c7.53,0,13.59-6.07,13.59-13.6c0-7.47-6.07-13.59-13.59-13.59h-126.82c-3.67,0-6.94-2.16-8.34-5.54l-12.14-29.11
			l-32.02,32.02c-1.69,1.69-3.97,2.63-6.36,2.63h-27.18V285.23z M885.6,285.23h108.73V158.36H885.6V285.23z M1189.11,103.99h-99.64
			l15.11,36.28H1174L1189.11,103.99z M1402.03,493.6c5.02,0,9.04,4.03,9.04,9.04v117.78c0,5.01-4.02,9.09-9.04,9.09h-274.87
			c-11.49-0.06-22.75-3.15-32.61-9.09l-104.3-62.54c-14.64-8.75-20.71-26.83-14.35-42.58c6.3-15.81,23.21-24.62,39.78-20.72
			c-13.82-20.07-21.29-43.87-21.35-68.25c0.35-45.67,17.79-89.6,48.94-123.02H876.56c-5.02,0-9.04-4.03-9.04-9.04V149.32
			c0-5.02,4.03-9.04,9.04-9.04h159.31l34.65-34.65l-3.04-7.17c-0.41-1.11-0.7-2.28-0.7-3.5c0-5.02,4.08-9.04,9.1-9.04h126.82
			c1.22,0,2.39,0.23,3.5,0.7c4.61,1.92,6.83,7.23,4.9,11.84l-17.44,41.82h31.67c15.81,0,29.17,11.55,31.39,27.12
			c2.5,17.39-9.51,33.43-26.84,35.93v72.81c0,5.77-1.87,11.31-5.25,15.98l1.34,1.28c36.81,34.47,57.86,82.54,58.28,132.94
			c-0.06,15.52-3.15,30.81-9.04,45.1c17.62,3.44,34.24,11.02,48.36,22.17H1402.03z"/>
	</g>
	<g id="Fill-42_2_">
		<polygon class="st8" points="1347.67,593.26 1365.79,593.26 1365.79,575.14 1347.67,575.14 		"/>
	</g>
	<g id="Fill-52_2_">
		<path class="st8" d="M1149,390.45h-13.26c-1.86,0-3.6-0.73-4.92-2.05c-1.31-1.31-2.04-3.05-2.04-4.91s0.73-3.61,2.04-4.91
			c1.32-1.32,3.06-2.05,4.92-2.05h27.29c0.19-0.03,0.39-0.07,0.62-0.14c0.26-0.08,0.49-0.17,0.68-0.26c2.87-0.85,4.9-3.36,5.07-6.21
			c0.2-3.24-2.05-6.3-5.39-7.15c-0.18-0.05-0.38-0.09-0.6-0.13c-0.14-0.02-0.26-0.03-0.39-0.05h-12.84c-0.29,0-0.53-0.24-0.53-0.54
			v-12.84c-0.01-0.15-0.03-0.36-0.1-0.58c-0.05-0.16-0.11-0.29-0.17-0.4c-1.33-2.75-4.13-4.44-7.09-4.3
			c-4.13,0.2-6.15,3.88-6.24,4.05c-0.09,0.2-0.17,0.44-0.23,0.71c-0.05,0.19-0.07,0.37-0.09,0.53v12.87c0,0.29-0.23,0.51-0.51,0.52
			c-5.38,0.13-10.42,2.28-14.25,6.1c-3.94,3.94-6.11,9.18-6.11,14.77c0,7.25,3.68,13.94,10.12,17.93c3.39,2.1,7.42,2.94,11.41,2.94
			h13.26c1.85,0,3.61,0.73,4.92,2.05c1.31,1.31,2.04,3.05,2.04,4.92c0,1.86-0.73,3.6-2.04,4.91c-1.31,1.32-3.07,2.05-4.92,2.05
			h-26.23c-0.11,0.05-0.28,0.11-0.38,0.16c-0.27,0.12-0.54,0.23-0.82,0.34c-2.35,1.16-3.91,3.49-4.08,6.08
			c-0.17,2.78,1.3,5.44,3.76,6.82c0.35,0.09,0.74,0.2,1.13,0.36c0.13,0.05,0.26,0.11,0.38,0.16h11.77c0.3,0,0.54,0.24,0.54,0.53
			v12.84c0.02,0.2,0.06,0.43,0.12,0.7c0.06,0.22,0.13,0.43,0.2,0.59c1.14,2.58,3.7,4.27,6.52,4.3c2.87,0.03,5.49-1.67,6.66-4.3
			c0.1-0.18,0.2-0.41,0.28-0.69c0.07-0.22,0.11-0.43,0.13-0.6V432.7c0-0.28,0.23-0.5,0.51-0.51c5.38-0.14,10.43-2.29,14.25-6.11
			c3.94-3.94,6.11-9.19,6.11-14.77c0-7.25-3.68-13.95-10.12-17.93C1157.02,391.29,1152.99,390.45,1149,390.45"/>
	</g>
</g>
<g>
	<g id="Fill-43_3_">
		<path class="st0" d="M394.06,280.72c-4.44-6.32-9.93-11.8-16.24-16.24c6.31-4.44,11.8-9.93,16.24-16.25
			c4.44,6.32,9.93,11.81,16.24,16.25C403.99,268.92,398.5,274.41,394.06,280.72 M441.44,275.69c6.19-1.05,10.36-6.91,9.32-13.1
			c-0.81-4.78-4.55-8.52-9.32-9.33c-18.54-3.09-33.06-17.62-36.16-36.15c-1.04-6.19-6.91-10.37-13.1-9.32
			c-4.78,0.81-8.51,4.54-9.32,9.32c-3.09,18.53-17.62,33.06-36.15,36.15c-6.2,1.05-10.37,6.92-9.33,13.12
			c0.81,4.78,4.55,8.51,9.33,9.32c18.53,3.09,33.06,17.62,36.15,36.15c1.04,6.19,6.91,10.38,13.1,9.33
			c4.78-0.81,8.52-4.55,9.32-9.33C408.37,293.31,422.89,278.79,441.44,275.69"/>
	</g>
</g>
</svg>
