<?xml version="1.0" encoding="utf-8"?>
<!-- Generator: Adobe Illustrator 24.0.1, SVG Export Plug-In . SVG Version: 6.00 Build 0)  -->
<svg version="1.1" id="earn_more" xmlns="http://www.w3.org/2000/svg" xmlns:xlink="http://www.w3.org/1999/xlink" x="0px" y="0px"
	 viewBox="0 0 1500 1500" style="enable-background:new 0 0 1500 1500;" xml:space="preserve">
<style type="text/css">
	.st0{fill:#05A983;}
	.st1{fill:#393A3A;}
	.st2{fill-rule:evenodd;clip-rule:evenodd;fill:#05A983;}
	.st3{fill:#005B4A;}
	.st4{fill:#77C7AD;}
	.st5{fill:#D4ECEB;}
	.st6{fill-rule:evenodd;clip-rule:evenodd;fill:#D5F2EF;}
	.st7{fill-rule:evenodd;clip-rule:evenodd;fill:#04AA84;}
	.st8{filter:url(#Adobe_OpacityMaskFilter);}
	.st9{fill-rule:evenodd;clip-rule:evenodd;fill:#FFFFFF;}
	.st10{mask:url(#mask-2_1_);}
	.st11{fill-rule:evenodd;clip-rule:evenodd;fill:#3A3A3A;}
</style>
<g>
	<path class="st0" d="M26.86,624.53h123.11c28.16,0,50.06,7.16,65.71,21.48c15.64,14.32,23.47,34.24,23.47,59.75
		c0,25.27-7.89,45.13-23.65,59.57C199.73,779.78,177.89,787,149.97,787H93.29v92.06H26.86V624.53z M140.94,737.18
		c12.28,0,21.36-2.53,27.26-7.58c5.9-5.05,8.85-12.87,8.85-23.47c0-10.59-2.95-18.47-8.85-23.65c-5.9-5.17-14.98-7.76-27.26-7.76
		H93.29v62.46H140.94z"/>
	<path class="st0" d="M404.32,716.42c13.36,12.88,20.04,32.92,20.04,60.11v102.53h-60.29v-24.91c-3.37,8.67-9.03,15.47-16.97,20.4
		c-7.94,4.93-17.45,7.4-28.52,7.4c-12.27,0-23.35-2.47-33.21-7.4c-9.87-4.93-17.63-11.79-23.29-20.58
		c-5.66-8.78-8.48-18.71-8.48-29.79c0-12.75,3.31-22.93,9.93-30.51c6.62-7.58,17.15-13.05,31.59-16.43
		c14.44-3.37,33.94-5.05,58.49-5.05h9.75v-4.33c0-8.9-2.05-15.1-6.14-18.59c-4.1-3.49-11.32-5.23-21.66-5.23
		c-8.19,0-17.63,1.62-28.34,4.87c-10.71,3.25-20.76,7.4-30.15,12.46l-16.25-42.24c10.35-6.26,23.29-11.49,38.81-15.71
		c15.52-4.21,29.79-6.32,42.78-6.32C370.32,697.1,390.96,703.54,404.32,716.42z M355.04,829.78c5.53-6.14,8.3-14.02,8.3-23.65v-4.33
		h-5.78c-15.41,0-26.36,1.39-32.85,4.15c-6.5,2.77-9.75,7.4-9.75,13.9c0,5.54,1.74,10.11,5.24,13.72c3.49,3.61,8,5.42,13.54,5.42
		C342.4,838.99,349.5,835.92,355.04,829.78z"/>
	<path class="st0" d="M644.58,701.79L536.27,944.05h-64.99l35.74-77.26l-72.57-164.99h67.15L540.6,801.8l41.16-100.01H644.58z"/>
	<path class="st0" d="M814.26,708.29c11.79,7.46,21,18.11,27.62,31.95c6.62,13.84,9.93,29.91,9.93,48.2
		c0,18.29-3.31,34.54-9.93,48.74c-6.62,14.2-15.89,25.22-27.8,33.03c-11.91,7.82-25.45,11.73-40.62,11.73
		c-11.8,0-22.56-2.41-32.31-7.22c-9.75-4.81-17.15-11.43-22.2-19.86v24.19h-63.18V624.53h64.26v97.84
		c5.29-7.7,12.69-13.84,22.2-18.41c9.5-4.57,19.91-6.86,31.23-6.86C788.86,697.1,802.46,700.84,814.26,708.29z M779.24,822.2
		c6.01-7.82,9.03-19.07,9.03-33.76c0-13.96-2.95-24.67-8.85-32.13c-5.9-7.46-14.38-11.19-25.45-11.19
		c-11.32,0-19.98,3.79-25.99,11.37c-6.02,7.58-9.03,18.47-9.03,32.67c0,14.44,3.01,25.51,9.03,33.21
		c6.01,7.71,14.56,11.55,25.63,11.55C764.67,833.93,773.22,830.02,779.24,822.2z"/>
	<path class="st0" d="M1024.56,716.42c13.36,12.88,20.04,32.92,20.04,60.11v102.53h-60.29v-24.91c-3.37,8.67-9.03,15.47-16.97,20.4
		c-7.94,4.93-17.45,7.4-28.52,7.4c-12.27,0-23.35-2.47-33.21-7.4c-9.87-4.93-17.63-11.79-23.29-20.58
		c-5.66-8.78-8.48-18.71-8.48-29.79c0-12.75,3.31-22.93,9.93-30.51c6.62-7.58,17.15-13.05,31.59-16.43
		c14.44-3.37,33.94-5.05,58.49-5.05h9.75v-4.33c0-8.9-2.05-15.1-6.14-18.59c-4.1-3.49-11.32-5.23-21.66-5.23
		c-8.19,0-17.63,1.62-28.34,4.87c-10.71,3.25-20.76,7.4-30.15,12.46l-16.25-42.24c10.35-6.26,23.29-11.49,38.81-15.71
		c15.52-4.21,29.79-6.32,42.78-6.32C990.56,697.1,1011.2,703.54,1024.56,716.42z M975.28,829.78c5.53-6.14,8.3-14.02,8.3-23.65
		v-4.33h-5.78c-15.41,0-26.36,1.39-32.85,4.15c-6.5,2.77-9.75,7.4-9.75,13.9c0,5.54,1.74,10.11,5.24,13.72
		c3.49,3.61,8,5.42,13.54,5.42C962.64,838.99,969.74,835.92,975.28,829.78z"/>
	<path class="st0" d="M1098.03,857.4c-17.09-16.37-25.63-38.63-25.63-66.79c0-18.53,4.15-34.9,12.46-49.1
		c8.3-14.2,19.98-25.15,35.02-32.85c15.04-7.7,32.43-11.55,52.17-11.55c13.23,0,26.05,1.93,38.45,5.78
		c12.39,3.85,22.44,9.03,30.15,15.52l-16.25,43.32c-6.02-4.81-13.3-8.72-21.84-11.73c-8.55-3.01-16.55-4.51-24.01-4.51
		c-13,0-22.92,3.61-29.79,10.83c-6.86,7.22-10.29,18.18-10.29,32.85c0,14.68,3.43,25.76,10.29,33.21
		c6.86,7.46,16.79,11.19,29.79,11.19c7.46,0,15.46-1.5,24.01-4.51c8.54-3.01,15.82-7.04,21.84-12.09l16.25,43.68
		c-8.19,6.74-18.59,11.98-31.23,15.71c-12.64,3.73-26.06,5.6-40.26,5.6C1138.82,881.95,1115.11,873.77,1098.03,857.4z"/>
	<path class="st0" d="M1385.05,879.06l-59.57-75.46v75.46h-64.26V624.53h64.26v149.83l58.49-72.57h76.18l-69.32,84.48l71.85,92.79
		H1385.05z"/>
</g>
<g>
	<path class="st1" d="M188.66,394.71c-2.88,0-5.79-0.84-8.35-2.59c-6.75-4.62-8.48-13.84-3.86-20.59
		c56.6-82.72,132.37-152.83,219.14-202.75c7.09-4.08,16.15-1.64,20.22,5.45s1.64,16.14-5.45,20.22
		C327.43,242.18,255,309.19,200.9,388.26C198.03,392.45,193.38,394.71,188.66,394.71z"/>
</g>
<g>
	<path class="st1" d="M102.3,575.44c-1.41,0-2.84-0.2-4.26-0.63c-7.84-2.35-12.29-10.6-9.94-18.44
		c11.92-39.79,27.69-78.69,46.88-115.61c3.77-7.26,12.71-10.09,19.97-6.31c7.26,3.77,10.09,12.71,6.31,19.97
		c-18.33,35.27-33.4,72.44-44.79,110.45C114.56,571.29,108.67,575.44,102.3,575.44z"/>
</g>
<g>
	<path class="st1" d="M221.05,1175.25c-4.31,0-8.57-1.87-11.5-5.47c-55.97-68.85-97.05-146.7-122.1-231.38
		c-2.32-7.84,2.16-16.08,10-18.4c7.84-2.32,16.08,2.16,18.4,10c23.93,80.91,63.19,155.3,116.68,221.1
		c5.16,6.35,4.2,15.68-2.15,20.84C227.64,1174.17,224.33,1175.25,221.05,1175.25z"/>
</g>
<g>
	<path class="st1" d="M694.88,1416c-0.25,0-0.51-0.01-0.76-0.02c-54.26-2.74-107.97-12.07-159.65-27.72
		c-50.3-15.23-98.83-36.49-144.25-63.19c-7.05-4.15-9.41-13.22-5.26-20.27c4.14-7.05,13.22-9.41,20.27-5.26
		c43.4,25.51,89.77,45.82,137.83,60.37c49.38,14.95,100.71,23.86,152.56,26.48c8.17,0.41,14.46,7.37,14.04,15.54
		C709.26,1409.85,702.71,1416,694.88,1416z"/>
</g>
<g>
	<path class="st1" d="M1137.8,1272.77c-4.33,0-8.62-1.89-11.55-5.53c-5.13-6.37-4.12-15.7,2.26-20.82
		c95.9-77.16,167.09-179.31,205.88-295.42c2.59-7.76,10.98-11.95,18.74-9.36c7.76,2.59,11.95,10.98,9.36,18.74
		c-40.59,121.5-115.07,228.39-215.41,309.12C1144.34,1271.7,1141.06,1272.77,1137.8,1272.77z"/>
</g>
<g>
	<path class="st1" d="M1362.96,606.24c-6.65,0-12.7-4.52-14.37-11.27c-5.55-22.51-12.42-44.94-20.4-66.69
		c-2.82-7.68,1.12-16.19,8.8-19.01c7.68-2.82,16.19,1.12,19.01,8.8c8.36,22.76,15.55,46.25,21.36,69.81
		c1.96,7.94-2.89,15.97-10.83,17.93C1365.33,606.1,1364.13,606.24,1362.96,606.24z"/>
</g>
<g>
	<path class="st1" d="M1020.47,178.49c-2.23,0-4.49-0.5-6.62-1.57c-43.39-21.71-89.3-38.43-136.44-49.7
		c-48.51-11.59-98.63-17.47-148.99-17.47c-45.75,0-91.41,4.86-135.72,14.45c-7.99,1.73-15.88-3.35-17.61-11.34
		c-1.73-7.99,3.35-15.88,11.34-17.61c46.36-10.03,94.13-15.12,141.98-15.12c52.67,0,105.11,6.15,155.87,18.28
		c49.34,11.79,97.39,29.29,142.81,52.02c7.32,3.66,10.28,12.56,6.62,19.87C1031.13,175.49,1025.9,178.49,1020.47,178.49z"/>
</g>
<g id="Fill-43_2_">
	<path class="st2" d="M300.14,1270.21c-6.09-8.67-13.64-16.2-22.29-22.29c8.66-6.09,16.2-13.64,22.29-22.31
		c6.09,8.67,13.64,16.22,22.29,22.31C313.77,1254,306.23,1261.53,300.14,1270.21 M365.17,1263.3c8.5-1.44,14.22-9.49,12.79-17.99
		c-1.11-6.56-6.25-11.69-12.79-12.81c-25.46-4.24-45.39-24.19-49.64-49.63c-1.42-8.5-9.49-14.23-17.99-12.79
		c-6.56,1.11-11.68,6.23-12.79,12.79c-4.24,25.44-24.19,45.39-49.63,49.63c-8.52,1.44-14.23,9.5-12.81,18
		c1.11,6.56,6.25,11.68,12.81,12.79c25.44,4.24,45.39,24.19,49.63,49.63c1.42,8.5,9.49,14.25,17.99,12.81
		c6.56-1.11,11.69-6.25,12.79-12.81C319.79,1287.49,339.72,1267.54,365.17,1263.3"/>
</g>
<g>
	<g id="Fill-43_3_">
		<path class="st2" d="M499.56,164.76c-4.44-6.32-9.93-11.8-16.24-16.24c6.31-4.44,11.8-9.93,16.24-16.25
			c4.44,6.32,9.93,11.81,16.24,16.25C509.49,152.96,503.99,158.44,499.56,164.76 M546.93,159.73c6.19-1.05,10.36-6.91,9.32-13.1
			c-0.81-4.78-4.55-8.52-9.32-9.33c-18.54-3.09-33.06-17.62-36.16-36.15c-1.04-6.19-6.91-10.37-13.1-9.32
			c-4.78,0.81-8.51,4.54-9.32,9.32c-3.09,18.53-17.62,33.06-36.15,36.15c-6.2,1.05-10.37,6.92-9.33,13.12
			c0.81,4.78,4.55,8.51,9.33,9.32c18.53,3.09,33.06,17.62,36.15,36.15c1.04,6.19,6.91,10.38,13.1,9.33
			c4.78-0.81,8.52-4.55,9.32-9.33C513.87,177.35,528.39,162.82,546.93,159.73"/>
	</g>
</g>
<g>
	<path class="st3" d="M433.83,544.62H336.1l-19.73,45.73h-57.95l103.05-220.83h45.73l103.37,220.83h-57.01L433.83,544.62z
		 M415.35,501.39l-30.38-70.79l-30.38,70.79H415.35z"/>
	<path class="st3" d="M544.71,416.2h-66.09v-46.67h190.45v46.67h-66.09v174.16h-58.26V416.2z"/>
	<path class="st3" d="M915.89,369.52v220.83h-50.12v-115.9l-42.6,79.25h-36.96l-42.29-77.37l-0.31,114.02h-50.12V369.52h45.42
		l66.41,125.61l66.09-125.61H915.89z"/>
</g>
<g>
	<g>
		<path class="st4" d="M1043.42,1441.17H810.75c-15.64,0-28.31-12.68-28.31-28.31V982.78c0-15.64,12.68-28.31,28.31-28.31h232.67
			c15.64,0,28.31,12.68,28.31,28.31v430.08C1071.73,1428.5,1059.06,1441.17,1043.42,1441.17z"/>
		<path class="st1" d="M1043.42,1450.71H810.75c-20.87,0-37.85-16.98-37.85-37.85V982.78c0-20.87,16.98-37.85,37.85-37.85h232.67
			c20.87,0,37.85,16.98,37.85,37.85v430.08C1081.27,1433.73,1064.29,1450.71,1043.42,1450.71z M810.75,964
			c-10.35,0-18.77,8.42-18.77,18.77v430.08c0,10.35,8.42,18.77,18.77,18.77h232.67c10.35,0,18.77-8.42,18.77-18.77V982.78
			c0-10.35-8.42-18.77-18.77-18.77H810.75z"/>
	</g>
	<g>
		<path class="st5" d="M1008.75,1170.1H845.42c-12.13,0-21.96-9.83-21.96-21.96v-135.51c0-12.13,9.83-21.96,21.96-21.96h163.33
			c12.13,0,21.96,9.83,21.96,21.96v135.51C1030.71,1160.27,1020.88,1170.1,1008.75,1170.1z"/>
		<path class="st1" d="M1008.75,1179.64H845.42c-17.37,0-31.5-14.13-31.5-31.5v-135.51c0-17.37,14.13-31.5,31.5-31.5h163.33
			c17.37,0,31.5,14.13,31.5,31.5v135.51C1040.25,1165.51,1026.12,1179.64,1008.75,1179.64z M845.42,1000.21
			c-6.85,0-12.42,5.57-12.42,12.42v135.51c0,6.85,5.57,12.42,12.42,12.42h163.33c6.85,0,12.42-5.57,12.42-12.42v-135.51
			c0-6.85-5.57-12.42-12.42-12.42H845.42z"/>
	</g>
	<g>
		<path class="st0" d="M1049.68,1441.17h-245.2c-12.18,0-22.05-9.87-22.05-22.05v-107.51h289.29v107.51
			C1071.73,1431.3,1061.86,1441.17,1049.68,1441.17z"/>
		<path class="st1" d="M1049.68,1450.75h-245.2c-17.44,0-31.62-14.19-31.62-31.62v-117.08h308.45v117.08
			C1081.31,1436.56,1067.12,1450.75,1049.68,1450.75z M792.01,1321.19v97.93c0,6.88,5.59,12.47,12.47,12.47h245.2
			c6.88,0,12.47-5.59,12.47-12.47v-97.93H792.01z"/>
	</g>
	<g>
		<path class="st1" d="M847.77,1222.15h-12.32c-2.49,0-4.51-2.02-4.51-4.51v-12.32c0-2.49,2.02-4.51,4.51-4.51h12.32
			c2.49,0,4.51,2.02,4.51,4.51v12.32C852.28,1220.13,850.26,1222.15,847.77,1222.15z"/>
	</g>
	<g>
		<path class="st1" d="M878.78,1222.15h-12.32c-2.49,0-4.51-2.02-4.51-4.51v-12.32c0-2.49,2.02-4.51,4.51-4.51h12.32
			c2.49,0,4.51,2.02,4.51,4.51v12.32C883.29,1220.13,881.27,1222.15,878.78,1222.15z"/>
	</g>
	<g>
		<path class="st1" d="M909.79,1222.15h-12.32c-2.49,0-4.51-2.02-4.51-4.51v-12.32c0-2.49,2.02-4.51,4.51-4.51h12.32
			c2.49,0,4.51,2.02,4.51,4.51v12.32C914.3,1220.13,912.28,1222.15,909.79,1222.15z"/>
	</g>
	<g>
		<path class="st1" d="M847.77,1251.05h-12.32c-2.49,0-4.51-2.02-4.51-4.51v-12.32c0-2.49,2.02-4.51,4.51-4.51h12.32
			c2.49,0,4.51,2.02,4.51,4.51v12.32C852.28,1249.04,850.26,1251.05,847.77,1251.05z"/>
	</g>
	<g>
		<path class="st1" d="M878.78,1251.05h-12.32c-2.49,0-4.51-2.02-4.51-4.51v-12.32c0-2.49,2.02-4.51,4.51-4.51h12.32
			c2.49,0,4.51,2.02,4.51,4.51v12.32C883.29,1249.04,881.27,1251.05,878.78,1251.05z"/>
	</g>
	<g>
		<path class="st1" d="M909.79,1251.05h-12.32c-2.49,0-4.51-2.02-4.51-4.51v-12.32c0-2.49,2.02-4.51,4.51-4.51h12.32
			c2.49,0,4.51,2.02,4.51,4.51v12.32C914.3,1249.04,912.28,1251.05,909.79,1251.05z"/>
	</g>
	<g>
		<path class="st1" d="M847.77,1279.96h-12.32c-2.49,0-4.51-2.02-4.51-4.51v-12.32c0-2.49,2.02-4.51,4.51-4.51h12.32
			c2.49,0,4.51,2.02,4.51,4.51v12.32C852.28,1277.94,850.26,1279.96,847.77,1279.96z"/>
	</g>
	<g>
		<path class="st1" d="M878.78,1279.96h-12.32c-2.49,0-4.51-2.02-4.51-4.51v-12.32c0-2.49,2.02-4.51,4.51-4.51h12.32
			c2.49,0,4.51,2.02,4.51,4.51v12.32C883.29,1277.94,881.27,1279.96,878.78,1279.96z"/>
	</g>
	<g>
		<path class="st1" d="M909.79,1279.96h-12.32c-2.49,0-4.51-2.02-4.51-4.51v-12.32c0-2.49,2.02-4.51,4.51-4.51h12.32
			c2.49,0,4.51,2.02,4.51,4.51v12.32C914.3,1277.94,912.28,1279.96,909.79,1279.96z"/>
	</g>
	<g>
		<path class="st1" d="M1018.48,1221.01h-70.52c-5.27,0-9.54-4.27-9.54-9.54s4.27-9.54,9.54-9.54h70.52c5.27,0,9.54,4.27,9.54,9.54
			S1023.75,1221.01,1018.48,1221.01z"/>
	</g>
	<g>
		<path class="st0" d="M993.99,1273.29h-21.55c-3.69,0-6.68-2.99-6.68-6.68v-55.13h34.92v55.13
			C1000.68,1270.3,997.68,1273.29,993.99,1273.29z"/>
		<path class="st1" d="M993.99,1282.83h-21.55c-8.95,0-16.22-7.28-16.22-16.22v-64.67h54v64.67
			C1010.21,1275.55,1002.94,1282.83,993.99,1282.83z M975.29,1263.75h15.84v-42.74h-15.84V1263.75z"/>
	</g>
	<g>
		<path class="st1" d="M1071.73,1321.16H782.44c-5.27,0-9.54-4.27-9.54-9.54s4.27-9.54,9.54-9.54h289.29c5.27,0,9.54,4.27,9.54,9.54
			S1077,1321.16,1071.73,1321.16z"/>
	</g>
</g>
<g>
	<g id="Fill-1">
		<path class="st6" d="M1196.27,229.4c-0.33,0.07-0.65,0.07-0.98,0.07c-2.75,0-5.37-1.05-7.34-2.95c-1.9-1.83-2.95-4.25-2.81-6.61
			c0.12-2.16,1.3-4.25,3.2-5.89c2.23-1.83,5.17-2.62,8.12-2.29c5.17-0.07,10.41-2.16,14.27-6.09c5.63-5.63,6.09-12.63,6.09-14.66
			c-0.2-4.65,3.27-9.03,7.78-9.56c2.42-0.26,4.91,0.59,6.88,2.36c2.02,1.83,3.14,4.52,3.08,7.27
			C1234.57,212.12,1217.41,229.33,1196.27,229.4 M1234.96,159.03c-9.62-11.65-23.76-18.33-38.82-18.33
			c-27.69,0.07-50.27,22.58-50.27,50.27c0,15.06,6.67,29.26,18.33,38.82c11.58,9.62,26.97,13.42,42.03,10.47
			c19.64-3.8,35.41-19.57,39.21-39.15C1248.38,186,1244.51,170.68,1234.96,159.03"/>
	</g>
	<g id="Fill-3">
		<path class="st7" d="M1101.48,341.53c-14.66,0-26.58-11.98-26.58-26.64s11.92-26.64,26.58-26.64c14.66,0,26.64,11.98,26.64,26.64
			S1116.15,341.53,1101.48,341.53 M1247.46,235.55c-1.77,1.96-3.6,3.93-5.64,5.7h7.53c4.91,0,8.9,3.99,8.9,8.9
			c0,4.84-3.99,8.84-8.9,8.84h-106.44c-4.91,0-8.9-3.99-8.9-8.84c0-4.91,3.99-8.9,8.9-8.9h7.46c-1.96-1.77-3.86-3.73-5.63-5.76
			c-7.27,0.33-14.53,1.37-21.6,3.21c-4.07,1.05-8.71-1.05-10.54-4.78c-4.98-10.74-14.54-18.46-25.92-21.14v39.01
			c0,2.62-1.18,5.17-3.34,6.87c-19.57,16.04-32.59,38.69-36.59,63.69c-0.72,4.45-4.39,7.66-8.77,7.66h-16.37v29.52h18.85
			c3.99,0,7.53,2.75,8.58,6.68c7.53,27.1,25.92,50.34,50.66,63.76c2.95,1.64,4.72,4.65,4.72,7.86v28.21h35.48v-14.79
			c0-4.91,3.99-8.9,8.9-8.9h94.66c4.91,0,8.84,3.99,8.84,8.9v14.79h35.48v-28.21c0-3.27,1.83-6.28,4.77-7.86
			c16.04-8.64,20.56-13.81,30.38-25.07l3.8-4.32c10.21-11.59,14.4-25.6,15.78-31.09c0.26-1.24,0.52-2.49,0.78-3.53
			c2.1-10.08,3.35-20.03,3.74-29.52C1346.9,281.77,1303.3,237.71,1247.46,235.55"/>
	</g>
	<g id="Group-25" transform="translate(151.000000, 51.286000)">
		<g id="Clip-24">
		</g>
		<defs>
			<filter id="Adobe_OpacityMaskFilter" filterUnits="userSpaceOnUse" x="852.88" y="71.58" width="360.83" height="360.91">
				<feColorMatrix  type="matrix" values="1 0 0 0 0  0 1 0 0 0  0 0 1 0 0  0 0 0 1 0"/>
			</filter>
		</defs>
		<mask maskUnits="userSpaceOnUse" x="852.88" y="71.58" width="360.83" height="360.91" id="mask-2_1_">
			<g class="st8">
				<polygon id="path-1_1_" class="st9" points="852.88,71.58 1213.7,71.58 1213.7,432.49 852.88,432.49 				"/>
			</g>
		</mask>
		<g id="Fill-23" class="st10">
			<path class="st11" d="M1192.29,314.66c-0.26,1.05-0.52,2.29-0.78,3.53c-1.37,5.5-5.57,19.51-15.78,31.09l-3.8,4.32
				c-9.82,11.26-14.34,16.43-30.38,25.07c-2.94,1.57-4.77,4.58-4.77,7.86v28.21h-35.48v-14.79c0-4.91-3.93-8.9-8.84-8.9h-94.66
				c-4.91,0-8.9,3.99-8.9,8.9v14.79h-35.48v-28.21c0-3.21-1.77-6.22-4.72-7.86c-24.74-13.42-43.14-36.66-50.66-63.76
				c-1.05-3.93-4.58-6.68-8.58-6.68h-18.85v-29.52h16.37c4.39,0,8.06-3.21,8.77-7.66c4-25.01,17.03-47.66,36.59-63.69
				c2.16-1.7,3.35-4.25,3.35-6.87v-39.01c11.38,2.68,20.94,10.41,25.92,21.14c1.83,3.73,6.47,5.83,10.53,4.78
				c7.07-1.83,14.34-2.88,21.61-3.21c1.76,2.03,3.66,3.99,5.62,5.76h-7.46c-4.91,0-8.91,3.99-8.91,8.9c0,4.84,4,8.84,8.91,8.84
				h106.43c4.91,0,8.91-3.99,8.91-8.84c0-4.91-4-8.9-8.91-8.9h-7.53c2.04-1.77,3.87-3.73,5.63-5.7
				c55.84,2.16,99.44,46.22,99.57,100.88C1195.64,294.63,1194.39,304.58,1192.29,314.66 M1045.14,89.41
				c15.05,0,29.19,6.68,38.81,18.33c9.56,11.65,13.42,26.97,10.48,42.09c-3.8,19.57-19.57,35.35-39.21,39.15
				c-15.06,2.95-30.45-0.85-42.03-10.47c-11.66-9.56-18.33-23.76-18.33-38.82C994.87,112,1017.45,89.48,1045.14,89.41
				 M1107.27,167.31c7.26-16.37,7.85-35.09,1.43-51.91c-6.93-18.2-21.41-32.6-39.8-39.54c-24.93-9.43-54.01-2.95-72.47,16.17
				c-19.57,20.29-24.67,50.01-13.42,75.28c-2.95,0.39-5.88,0.85-8.77,1.44c-10.28-16.04-28.21-25.99-47.33-26.12h-0.07
				c-2.35,0-4.58,0.92-6.28,2.62c-1.7,1.7-2.61,3.93-2.61,6.28v44.84c-19.25,16.82-32.73,39.67-38.3,64.61h-17.86
				c-4.91,0-8.91,3.93-8.91,8.84v47.33c0,4.91,4,8.84,8.91,8.84h21.14c9.23,27.56,27.89,50.8,52.77,65.72v31.88
				c0,4.91,3.99,8.9,8.9,8.9h53.22c4.91,0,8.9-3.99,8.9-8.9V408.8h76.86v14.79c0,4.91,3.99,8.9,8.9,8.9h53.23
				c4.91,0,8.9-3.99,8.9-8.9v-31.88c33.13-19.77,54.99-54.4,58.46-92.5c0.45-1.9,0.65-3.8,0.65-5.76v-5.89
				C1213.64,225.7,1168.15,174.77,1107.27,167.31"/>
		</g>
	</g>
	<g id="Fill-26">
		<path class="st11" d="M1101.48,306.05c4.91,0,8.9,3.93,8.9,8.84c0,4.91-3.99,8.9-8.9,8.9s-8.84-3.99-8.84-8.9
			C1092.64,309.98,1096.57,306.05,1101.48,306.05 M1101.48,288.25c-14.66,0-26.58,11.98-26.58,26.64s11.92,26.64,26.58,26.64
			c14.66,0,26.64-11.98,26.64-26.64S1116.15,288.25,1101.48,288.25"/>
	</g>
	<g id="Fill-28">
		<path class="st11" d="M1234.57,191.04c0,21.08-17.15,38.29-38.3,38.36c-0.32,0.07-0.65,0.07-0.98,0.07
			c-2.75,0-5.37-1.05-7.33-2.95c-1.9-1.83-2.95-4.25-2.81-6.61c0.13-2.16,1.3-4.25,3.2-5.89c2.23-1.83,5.17-2.62,8.12-2.29
			c5.17-0.07,10.41-2.16,14.26-6.09c5.64-5.63,6.09-12.63,6.09-14.66c-0.2-4.65,3.27-9.03,7.78-9.56c2.43-0.26,4.91,0.59,6.88,2.36
			C1233.52,185.6,1234.63,188.29,1234.57,191.04"/>
	</g>
</g>
</svg>
