<?xml version="1.0" encoding="utf-8"?>
<!-- Generator: Adobe Illustrator 24.0.3, SVG Export Plug-In . SVG Version: 6.00 Build 0)  -->
<svg version="1.1" id="earn_more" xmlns="http://www.w3.org/2000/svg" xmlns:xlink="http://www.w3.org/1999/xlink" x="0px" y="0px"
	 viewBox="0 0 1500 1500" style="enable-background:new 0 0 1500 1500;" xml:space="preserve">
<style type="text/css">
	.st0{fill-rule:evenodd;clip-rule:evenodd;fill:#05A983;}
	.st1{fill:#05A983;}
	.st2{fill:#004A39;}
	.st3{fill:#D4ECEB;}
	.st4{fill:#6BD7B4;}
	.st5{fill:#393A3A;}
	.st6{fill:#FFFFFF;}
	.st7{fill:#05A983;stroke:#393A3A;stroke-width:16.1974;stroke-miterlimit:10;}
	.st8{fill:#D5F2EF;}
</style>
<g>
	<g id="Fill-43_1_">
		<path class="st0" d="M1249.97,347.24c-5.73-8.16-12.84-15.25-20.99-20.99c8.15-5.73,15.25-12.84,20.99-21
			c5.73,8.16,12.84,15.27,20.99,21C1262.81,331.98,1255.7,339.07,1249.97,347.24 M1311.19,340.74c8-1.36,13.38-8.93,12.04-16.93
			c-1.05-6.17-5.88-11.01-12.04-12.06c-23.96-3.99-42.72-22.77-46.73-46.72c-1.34-8-8.93-13.4-16.93-12.04
			c-6.18,1.05-10.99,5.87-12.04,12.04c-3.99,23.95-22.77,42.72-46.72,46.72c-8.02,1.36-13.4,8.95-12.06,16.95
			c1.05,6.17,5.88,10.99,12.06,12.04c23.95,3.99,42.72,22.77,46.72,46.72c1.34,8,8.93,13.41,16.93,12.05
			c6.17-1.05,11.01-5.88,12.04-12.05C1268.46,363.51,1287.22,344.73,1311.19,340.74"/>
	</g>
</g>
<g>
	<g>
		<g id="Fill-43_3_">
			<path class="st0" d="M1221.86,1247.43c-4.44-6.32-9.93-11.8-16.24-16.24c6.31-4.44,11.8-9.93,16.24-16.25
				c4.44,6.32,9.93,11.81,16.24,16.25C1231.79,1235.63,1226.29,1241.11,1221.86,1247.43 M1269.23,1242.4
				c6.19-1.05,10.36-6.91,9.32-13.1c-0.81-4.78-4.55-8.52-9.32-9.33c-18.54-3.09-33.06-17.62-36.16-36.15
				c-1.04-6.19-6.91-10.37-13.1-9.32c-4.78,0.81-8.51,4.54-9.32,9.32c-3.09,18.53-17.62,33.06-36.15,36.15
				c-6.2,1.05-10.37,6.92-9.33,13.12c0.81,4.78,4.55,8.51,9.33,9.32c18.53,3.09,33.06,17.62,36.15,36.15
				c1.04,6.19,6.91,10.38,13.1,9.33c4.78-0.81,8.52-4.55,9.32-9.33C1236.17,1260.02,1250.69,1245.49,1269.23,1242.4"/>
		</g>
	</g>
</g>
<g>
	<g>
		<g>
			<path class="st1" d="M44.34,785.65h96.29c26.17,0,48.7,4.7,67.61,14.09c18.9,9.39,33.38,22.98,43.45,40.76s15.1,38.87,15.1,63.24
				c0,24.61-4.98,45.8-14.93,63.58c-9.96,17.78-24.38,31.37-43.28,40.76c-18.9,9.39-41.55,14.09-67.94,14.09H44.34V785.65z
				 M136.27,972.53c23.26,0,40.6-5.7,52-17.11c11.41-11.41,17.11-28.63,17.11-51.67c0-23.04-5.7-40.2-17.11-51.5
				c-11.41-11.29-28.74-16.94-52-16.94h-30.2v137.22H136.27z"/>
		</g>
		<g>
			<path class="st1" d="M298.32,774.58h62.41v54.02h-62.41V774.58z M299.67,1022.19V857.12h59.72v165.07H299.67z"/>
		</g>
		<g>
			<path class="st1" d="M416.42,1019.84c-13.42-3.36-24.72-8.27-33.89-14.76l15.1-40.6c8.94,5.82,19.12,10.46,30.53,13.92
				c11.41,3.47,22.36,5.2,32.88,5.2c6.48,0,11.52-0.95,15.1-2.85c3.58-1.9,5.37-4.53,5.37-7.88c0-2.9-1.29-5.14-3.86-6.71
				c-2.57-1.56-7.77-3.24-15.6-5.03l-26.51-6.04c-16.78-3.8-28.85-9.39-36.24-16.78c-7.38-7.38-11.07-17.89-11.07-31.54
				c0-10.51,3.13-19.85,9.39-28.02c6.26-8.16,15.04-14.48,26.34-18.96c11.29-4.47,24.1-6.71,38.42-6.71c11.85,0,23.65,1.74,35.4,5.2
				c11.74,3.47,22.42,8.33,32.04,14.59l-15.43,38.92c-8.95-5.59-17.95-9.9-27.01-12.92c-9.06-3.02-17.61-4.53-25.67-4.53
				c-6.49,0-11.52,1.01-15.1,3.02c-3.58,2.01-5.37,4.92-5.37,8.72c0,2.24,1.12,4.08,3.35,5.54c2.23,1.46,6.15,2.85,11.74,4.19
				l27.85,6.38c17.45,3.81,30.08,9.68,37.91,17.61c7.83,7.94,11.74,18.74,11.74,32.38c0,16.33-6.54,29.19-19.63,38.58
				c-13.09,9.39-31.04,14.09-53.85,14.09C444.49,1024.87,429.84,1023.2,416.42,1019.84z"/>
		</g>
		<g>
			<path class="st1" d="M574.44,1002.06c-15.88-15.21-23.82-35.9-23.82-62.07c0-17.22,3.86-32.43,11.58-45.63
				c7.72-13.2,18.56-23.37,32.54-30.53c13.98-7.16,30.14-10.74,48.48-10.74c12.3,0,24.21,1.79,35.73,5.37
				c11.52,3.58,20.85,8.39,28.01,14.43l-15.1,40.26c-5.59-4.47-12.36-8.1-20.3-10.9c-7.94-2.79-15.38-4.19-22.31-4.19
				c-12.08,0-21.31,3.36-27.68,10.07c-6.38,6.71-9.56,16.89-9.56,30.53c0,13.65,3.19,23.94,9.56,30.87
				c6.37,6.94,15.6,10.4,27.68,10.4c6.93,0,14.37-1.39,22.31-4.19c7.94-2.79,14.7-6.54,20.3-11.24l15.1,40.6
				c-7.61,6.26-17.28,11.13-29.02,14.59c-11.74,3.47-24.21,5.2-37.41,5.2C612.36,1024.87,590.32,1017.27,574.44,1002.06z"/>
		</g>
		<g>
			<path class="st1" d="M761.49,1014.3c-13.76-7.05-24.38-17.05-31.87-30.03c-7.5-12.97-11.24-28.18-11.24-45.63
				c0-17.45,3.74-32.6,11.24-45.46c7.49-12.86,18.06-22.76,31.71-29.69c13.64-6.93,29.63-10.4,47.98-10.4
				c18.34,0,34.33,3.47,47.98,10.4c13.64,6.94,24.21,16.83,31.71,29.69c7.49,12.86,11.24,28.01,11.24,45.46
				c0,17.45-3.75,32.66-11.24,45.63c-7.5,12.97-18.07,22.98-31.71,30.03c-13.65,7.05-29.64,10.57-47.98,10.57
				C791.18,1024.87,775.25,1021.35,761.49,1014.3z M841.18,938.65c0-27.73-10.63-41.6-31.87-41.6c-21.25,0-31.87,13.87-31.87,41.6
				c0,27.74,10.62,41.6,31.87,41.6C830.55,980.25,841.18,966.38,841.18,938.65z"/>
		</g>
		<g>
			<path class="st1" d="M1093.81,857.12v165.07h-58.04v-22.14c-5.15,8.05-11.69,14.21-19.63,18.45c-7.94,4.25-17.06,6.38-27.34,6.38
				c-21.25,0-37.02-5.87-47.31-17.62c-10.29-11.74-15.43-29.58-15.43-53.51v-96.63h59.72v97.97c0,16.1,6.93,24.16,20.8,24.16
				c8.05,0,14.65-2.9,19.79-8.72c5.14-5.81,7.72-13.42,7.72-22.81v-90.59H1093.81z"/>
		</g>
		<g>
			<path class="st1" d="M1283.71,870.71c9.61,11.74,14.43,29.58,14.43,53.51v97.97h-59.72V926.9c0-9.84-1.74-17-5.2-21.47
				c-3.47-4.47-8.67-6.71-15.6-6.71c-8.95,0-16.05,2.85-21.3,8.56c-5.26,5.7-7.88,13.37-7.88,22.98v91.93h-59.72V857.12h58.04v22.14
				c5.81-8.5,13.31-14.98,22.48-19.46c9.17-4.47,19.34-6.71,30.53-6.71C1259.44,853.09,1274.09,858.96,1283.71,870.71z"/>
		</g>
		<g>
			<path class="st1" d="M1446.77,980.92l-3.02,42.61c-7.16,0.89-14.09,1.34-20.8,1.34c-26.84,0-46.36-5.65-58.55-16.94
				c-12.19-11.29-18.29-28.8-18.29-52.51v-54.35h-30.87v-43.95h30.87v-47.98h59.72v47.98h39.59v43.95h-39.59v54.69
				c0,17.45,8.16,26.17,24.49,26.17C1435.25,981.93,1440.73,981.59,1446.77,980.92z"/>
		</g>
	</g>
	<g>
		<g>
			<path class="st2" d="M533.77,700.09h-97.14l-58.67-108.21c-7.38-12.5-19.08-18.76-35.11-18.76h-26.93v126.96h-87.05V361.04
				h161.59c41.04,0,71.9,8.9,92.58,26.69c20.68,17.79,31.02,43.52,31.02,77.19c0,25.65-7.06,47.37-21.16,65.16
				c-14.11,17.79-33.99,29.74-59.63,35.83c19.55,4.17,35.11,16.83,46.65,37.99L533.77,700.09z M418.59,497.62
				c8.49-6.09,12.74-16.03,12.74-29.82c0-14.1-4.25-24.29-12.74-30.54c-8.5-6.25-22.53-9.38-42.08-9.38h-61.56v78.87h61.56
				C396.06,506.76,410.09,503.72,418.59,497.62z"/>
		</g>
		<g>
			<path class="st2" d="M750.9,483.44c17.79,17.15,26.69,43.85,26.69,80.07v136.58h-80.31V666.9c-4.49,11.54-12.02,20.6-22.6,27.17
				c-10.58,6.57-23.25,9.86-37.99,9.86c-16.35,0-31.1-3.29-44.24-9.86c-13.15-6.57-23.49-15.71-31.02-27.41
				c-7.54-11.7-11.3-24.92-11.3-39.68c0-16.99,4.4-30.54,13.23-40.64c8.81-10.1,22.84-17.39,42.08-21.88
				c19.24-4.49,45.21-6.73,77.91-6.73h12.98v-5.77c0-11.86-2.73-20.12-8.18-24.77c-5.46-4.64-15.07-6.97-28.85-6.97
				c-10.9,0-23.49,2.16-37.75,6.49c-14.27,4.33-27.65,9.86-40.16,16.59l-21.64-56.27c13.78-8.33,31.02-15.31,51.7-20.92
				c20.68-5.61,39.68-8.42,56.99-8.42C705.61,457.71,733.1,466.29,750.9,483.44z M685.25,634.44c7.37-8.18,11.06-18.67,11.06-31.5
				v-5.77h-7.69c-20.52,0-35.11,1.85-43.76,5.53c-8.66,3.69-12.98,9.86-12.98,18.52c0,7.38,2.32,13.47,6.97,18.27
				c4.64,4.81,10.66,7.21,18.03,7.21C668.42,646.71,677.87,642.62,685.25,634.44z"/>
		</g>
		<g>
			<path class="st2" d="M990.63,640.94l-4.33,61.08c-10.26,1.28-20.2,1.92-29.82,1.92c-38.47,0-66.45-8.09-83.92-24.29
				c-17.48-16.19-26.21-41.28-26.21-75.26v-77.91h-44.24v-63h44.24v-68.77h85.6v68.77h56.75v63h-56.75v78.39
				c0,25.01,11.7,37.51,35.11,37.51C974.11,642.38,981.97,641.9,990.63,640.94z"/>
		</g>
		<g>
			<path class="st2" d="M1238.78,598.13h-146.2c2.56,15.39,8.18,26.45,16.83,33.18s21,10.1,37.03,10.1
				c11.54,0,23.24-1.92,35.11-5.77c11.86-3.85,22.44-9.14,31.74-15.87l21.64,56.27c-11.87,8.66-26.13,15.47-42.8,20.44
				c-16.67,4.97-33.35,7.45-50.01,7.45c-27.25,0-50.82-4.97-70.69-14.91c-19.88-9.93-35.19-24.2-45.93-42.8
				c-10.75-18.59-16.11-40.4-16.11-65.4c0-23.72,5.05-44.97,15.15-63.72c10.1-18.76,24.2-33.34,42.32-43.76
				c18.11-10.42,38.55-15.63,61.32-15.63c33.98,0,60.91,10.82,80.79,32.46c19.88,21.64,29.82,51.22,29.82,88.73V598.13z
				 M1091.62,557.74h75.5c-1.92-28.21-14.11-42.32-36.55-42.32C1107.8,515.42,1094.82,529.53,1091.62,557.74z"/>
		</g>
	</g>
</g>
<g>
	<g>
		<path class="st3" d="M990.5,162.72c-4.81-1.19-10.34,0.47-16.27,4.81c-5.12,3.4-10.57,6.95-16.1,10.58
			c-3.16,2.05-6.33,4.11-9.56,6.24l-23.3,15.09c-9.48,6.23-18.64,12.16-27.09,17.69c-0.71,0.4-1.51,0.79-2.45,1.11
			c-1.66,4.57-4.42,8.76-8.05,12c-6.48,5.92-14.85,8.92-23.69,8.37l-75.73,0.86c-4.11,0-7.52-3.31-7.52-7.34
			c0-4.19,3.23-7.51,7.35-7.58l76.37-0.87c5.06,0.32,9.55-1.27,13.11-4.42c2.76-2.53,4.49-5.84,4.57-8.85
			c0.09-3.23-1.82-7.02-4.98-9.87c-2.68-2.37-7.26-4.98-13.58-3.95l-19.83,1.66c-10.5,1.34-21,1.19-31.42-0.55
			c-9.49-1.5-16.12-4.11-21.56-6.16l-0.55-0.24c-3.71-1.42-7.58-2.85-12.16-3.87c-12.25-3-25.91-2.21-40.75,2.53l-27.25,8.77
			l0.48,22.19c0,4.26-3.24,7.59-7.35,7.59c-4.26,0-7.59-3.24-7.59-7.35l-0.94-44.38c0-0.32-0.08-0.63-0.16-0.78H663
			c-0.17,0.15-0.25,0.47-0.25,0.86v146.81c0,0.33,0.08,0.55,0.25,0.87h32.37c0.15-0.32,0.23-0.55,0.23-0.87v-45.8
			c0-4.11,3.24-7.42,7.44-7.42c4.18,0,7.5,3.31,7.5,7.42v20.62c17.13-4.82,33.79-6.56,49.43-4.98c2.13,0.16,3.87,0.4,7.9,1.02
			l1.03,0.16l20.45,3.08c8.78,1.26,16.42,2.44,22.82,3.31c3.8,0.63,7.19,1.11,10.04,1.5c4.98,1.03,9.88,1.59,14.69,1.59
			c6.71,0,13.27-1.03,19.35-3c3.7-1.26,7.74-3.08,11.93-5.53c26.44-19.11,52.27-39.49,76.68-60.5
			c14.93-12.87,30.72-27.32,46.99-42.88c5.76-5.37,9.47-12.4,9.47-18.01c0-1.42-0.32-2.69-0.78-3.63
			C998.32,166.58,994.61,163.66,990.5,162.72z"/>
	</g>
	<g>
		<path class="st4" d="M840.45,152.29c31.91,0,57.8-25.91,57.8-57.73c0-31.91-25.9-57.81-57.8-57.81c-31.83,0-57.8,25.91-57.8,57.81
			C782.64,126.39,808.62,152.29,840.45,152.29z M822.13,71.02c2.29-4.42,6.08-7.74,10.73-9.31v-4.03c-0.15-1.66,0.56-3.63,1.97-5.21
			c1.59-1.66,3.72-2.53,6.01-2.37h0.08c3.23,0,6.16,2.37,6.87,5.6c0.17,0.4,0.25,0.95,0.25,1.35v4.66
			c7.59,2.6,12.79,9.63,13.19,17.69c-0.71,4.03-3.8,6.79-7.43,6.79h-0.47c-3.48-0.16-6.41-2.69-7.12-6.08
			c-0.08-1.51-0.63-2.53-1.58-3.32c-1.02-1.02-2.29-1.34-3.23-1.34h-1.9c-1.73,0-3.39,1.02-4.27,2.61c-0.55,1.1-0.63,2.36-0.23,3.63
			c0.4,1.26,1.26,2.29,2.37,2.69l12.95,6.48c4.73,2.44,8.36,6.71,10.03,11.84l0.08,0.16c0.55,2.29,0.79,4.03,0.79,5.68
			c0,8.37-5.45,15.96-13.35,18.64v5.61c-0.24,1.42-0.95,2.6-2.14,3.87c-1.5,1.58-3.31,2.29-5.45,2.29
			c-3.63-0.08-6.71-2.69-7.34-6.08v-5.69c-7.67-2.68-12.87-9.63-13.19-17.76c0.55-4.03,3.55-6.87,7.35-6.95h0.15
			c3.88,0,7.03,2.69,7.51,6.48c0.07,0.87,0.47,2.13,1.58,3.16c0.86,0.78,2.05,1.26,3.24,1.34h1.89c1.74,0,3.4-1.02,4.19-2.69
			c0.55-1.18,0.63-2.45,0.24-3.63c-0.4-1.27-1.18-2.21-2.37-2.77l-12.87-6.47c-4.82-2.46-8.45-6.72-10.03-11.69
			C819.04,81.05,819.52,75.68,822.13,71.02z"/>
	</g>
	<g>
		<rect x="656.88" y="171.5" class="st1" width="46.28" height="157.57"/>
	</g>
	<g>
		<path class="st5" d="M830.66,97.88l12.87,6.47c1.19,0.55,1.97,1.5,2.37,2.77c0.4,1.18,0.31,2.45-0.24,3.63
			c-0.79,1.66-2.45,2.69-4.19,2.69h-1.89c-1.19-0.08-2.38-0.55-3.24-1.34c-1.11-1.03-1.51-2.29-1.58-3.16
			c-0.48-3.79-3.63-6.48-7.51-6.48h-0.15c-3.8,0.08-6.8,2.93-7.35,6.95c0.32,8.13,5.53,15.09,13.19,17.76v5.69
			c0.63,3.39,3.71,6,7.34,6.08c2.14,0,3.95-0.71,5.45-2.29c1.19-1.27,1.9-2.45,2.14-3.87v-5.61c7.9-2.68,13.35-10.27,13.35-18.64
			c0-1.66-0.25-3.39-0.79-5.68l-0.08-0.16c-1.66-5.13-5.3-9.4-10.03-11.84l-12.95-6.48c-1.11-0.4-1.97-1.43-2.37-2.69
			c-0.4-1.27-0.32-2.53,0.23-3.63c0.88-1.59,2.54-2.61,4.27-2.61h1.9c0.94,0,2.21,0.32,3.23,1.34c0.95,0.79,1.5,1.82,1.58,3.32
			c0.71,3.39,3.64,5.92,7.12,6.08h0.47c3.63,0,6.71-2.77,7.43-6.79c-0.4-8.05-5.6-15.09-13.19-17.69v-4.66
			c0-0.4-0.08-0.95-0.25-1.35c-0.71-3.23-3.63-5.6-6.87-5.6h-0.08c-2.29-0.16-4.42,0.71-6.01,2.37c-1.41,1.58-2.12,3.55-1.97,5.21
			v4.03c-4.65,1.58-8.44,4.89-10.73,9.31c-2.61,4.66-3.08,10.03-1.5,15.16C822.21,91.16,825.84,95.42,830.66,97.88z"/>
	</g>
	<g>
		<path class="st5" d="M993.81,148.1c-6.47-1.42-16.58-1.34-28.03,7.19c-7.74,5.06-16.43,10.74-24.88,16.2
			c-4.18,2.68-8.44,5.45-12.63,8.13c-5.29,3.55-10.66,7.02-15.96,10.5c-2.68,1.74-5.37,3.47-8.05,5.21l-8.93,5.84
			c-1.66-4.49-4.49-8.52-8.29-11.76c-6.87-6.24-16.12-9.08-25.27-7.66l-19.59,1.66c-9.24,1.19-18.48,1.03-27.32-0.48
			c-8.21-1.42-13.59-3.31-19.34-5.6l-1.43-0.48c-3.79-1.42-7.74-2.84-12.56-3.95c-15.01-3.64-31.43-2.69-48.73,2.84l-23.06,7.35
			l-0.08-6.56c-0.16-8.69-6.56-15.47-14.53-15.47h-32.77c-8.06,0-14.53,7.1-14.53,15.79v146.81c0,8.7,6.47,15.8,14.53,15.8h33.64
			c8.05,0,14.53-7.1,14.53-15.8v-9.63c16.9-5.29,33.01-7.19,47.94-5.68c2.36,0.24,4.34,0.47,11.21,1.5l17.53,2.69
			c12.24,1.89,24.32,3.63,32.3,4.66c5.45,1.26,11.22,1.89,17.3,1.89c8.13,0,16.27-1.27,24.01-3.71c5.21-1.74,10.34-4.11,15.32-7.03
			l0.4-0.32c26.06-18.8,52.36-39.49,78.03-61.52c16.67-14.45,32.62-29.06,47.47-43.36c9.08-8.36,14.13-19.26,14.13-28.82
			c0-3.87-0.78-7.58-2.53-10.74C1009.53,155.76,1002.19,150,993.81,148.1z M991.85,192.25c-16.27,15.55-32.07,30-46.99,42.88
			c-24.41,21.01-50.23,41.39-76.68,60.5c-4.19,2.45-8.23,4.26-11.93,5.53c-6.08,1.97-12.64,3-19.35,3c-4.81,0-9.71-0.55-14.69-1.59
			c-2.85-0.39-6.24-0.86-10.04-1.5c-6.4-0.87-14.05-2.05-22.82-3.31l-20.45-3.08l-1.03-0.16c-4.03-0.63-5.76-0.86-7.9-1.02
			c-15.64-1.58-32.3,0.16-49.43,4.98v-20.62c0-4.11-3.32-7.42-7.5-7.42c-4.19,0-7.44,3.31-7.44,7.42v45.8
			c0,0.33-0.08,0.55-0.23,0.87H663c-0.17-0.32-0.25-0.55-0.25-0.87V176.85c0-0.4,0.08-0.71,0.25-0.86h31.5
			c0.08,0.15,0.16,0.47,0.16,0.78l0.94,101.09c0,4.11,3.32-7.42,7.59-7.42c4.11,0,7.35,14.68,7.35,10.42l-0.48-82.13l27.25-8.77
			c14.84-4.74,28.5-5.53,40.75-2.53c4.58,1.02,8.45,2.45,12.16,3.87l0.55,0.24c5.45,2.05,12.07,4.66,21.56,6.16
			c10.42,1.74,20.92,1.89,31.42,0.55l19.83-1.66c6.32-1.03,10.9,1.58,13.58,3.95c3.16,2.85,5.07,6.64,4.98,9.87
			c-0.08,3-1.82,6.32-4.57,8.85c-3.56,3.15-8.05,4.74-13.11,4.42l-76.37,0.87c-4.11,0.07-7.35,3.39-7.35,7.58
			c0,4.03,3.4,7.34,7.52,7.34l75.73-0.86c8.85,0.55,17.22-2.45,23.69-8.37c3.64-3.24,6.4-7.43,8.05-12
			c0.94-0.32,1.74-0.71,2.45-1.11c8.45-5.53,17.61-11.45,27.09-17.69l23.3-15.09c3.23-2.12,6.4-4.19,9.56-6.24
			c5.53-3.63,10.98-7.18,16.1-10.58c5.94-4.34,11.46-6,16.27-4.81c4.11,0.94,7.82,3.87,10.04,7.9c0.47,0.94,0.78,2.21,0.78,3.63
			C1001.32,179.85,997.61,186.88,991.85,192.25z"/>
	</g>
	<g>
		<path class="st5" d="M840.45,166.74c39.8,0,72.18-32.38,72.18-72.18s-32.38-72.18-72.18-72.18c-39.72,0-72.11,32.38-72.11,72.18
			S800.72,166.74,840.45,166.74z M840.45,36.75c31.91,0,57.8,25.91,57.8,57.81c0,31.83-25.9,57.73-57.8,57.73
			c-31.83,0-57.8-25.91-57.8-57.73C782.64,62.65,808.62,36.75,840.45,36.75z"/>
	</g>
</g>
<g>
	<g>
		<path class="st1" d="M261.2,1373.27c0,0-7.41-32.07,9.03-81.02c16.44-48.95,104.62-48.95,131.01-55.07
			c26.39-6.12,30.29-10.57,41.54-19.47c11.25-8.9,52.78-46.17,77.01-55.07c24.23-8.9,29.85-16.69,138.45-21.14
			c108.6-4.45,194.26,0.56,207.68,0.56c13.41,0,45.86,0.56,42.83,6.68c-3.03,6.12-11.68,13.91-9.95,17.24
			c1.73,3.34,35.05,49.51,38.51,62.3c3.46,12.79,1.3,84.55,1.3,84.55s10.38,10.57,11.25,29.48s2.16,43.95-6.49,45.61
			c-8.65,1.67-69.23,13.91-78.74,15.58c-9.52,1.67-432.23,10.57-432.23,10.57s-121.44,0.92-133.99-0.75
			c-8-1.06-33.59,0.76-39.59-8.62C250.82,1392.18,257.09,1376.33,261.2,1373.27z"/>
	</g>
	<g>
		<path class="st2" d="M265.41,1374.34c0,0,23.33,17.13,239.75,12.13s311.67-9.28,439.97-32.12c0,0,7.78,8.57,5.83,17.84
			s-5.83,19.99-49.25,25.7s-238.45,11.42-313.62,12.13s-283.16,6.42-295.47,2.86c-12.31-3.57-38.23,0-38.23-17.84
			S265.41,1374.34,265.41,1374.34z"/>
	</g>
	<g>
		<path class="st3" d="M898.81,1171.55c-1.73-3.34,6.92-11.13,9.95-17.24c3.03-6.12-29.42-6.68-42.83-6.68
			c-13.41,0-99.08-5.01-207.68-0.56c-108.6,4.45-114.22,12.24-138.45,21.14c-24.23,8.9-65.76,46.17-77.01,55.07
			c-11.25,8.9-15.14,13.35-41.54,19.47c-26.39,6.12-114.57,6.12-131.01,55.07c-2.12,6.31,668.83-42.48,668.83-42.48
			c-0.26-9.84-0.79-17.94-1.75-21.49C933.85,1221.05,900.54,1174.88,898.81,1171.55z"/>
	</g>
	<g>
		<path class="st6" d="M315.61,1256.65c0,0-42.17,5.56-46.46,49.51c0,0-8.84,13.07,27.52,3.06s43.65-14.98,45.41-30.28
			C343.86,1263.63,333.54,1258.04,315.61,1256.65z"/>
	</g>
	<g>
		<path class="st5" d="M261.63,1319.99l-0.85-9.59c0.16-0.01,16.38-1.49,33.79-5.5c21.75-5.02,36.07-11.88,40.32-19.31
			c2.68-4.69,3.22-8.64,1.66-12.09c-3.55-7.85-17.19-12.22-22.15-13.24l1.92-9.43c0.23,0.05,5.62,1.16,11.74,3.84
			c8.71,3.82,14.52,8.81,17.25,14.85c2.89,6.38,2.2,13.4-2.07,20.86C330.15,1313.28,268.6,1319.37,261.63,1319.99z"/>
	</g>
	<g>
		<path class="st4" d="M937.31,1233.85h-41.12c0,0-11.61,0.83-11.61,17.1s4.81,34.62,49.55,33.79L937.31,1233.85z"/>
	</g>
	<g>
		<path class="st4" d="M482.09,1257.69c0,0,226.55,1.63,293.02-17.35c66.46-18.97,88.2-28.73,87.36-33.61s-17.97-38.49-78.17-39.03
			c-33.48-0.3-66.98,0.28-100.46,0.91c-29.42,0.55-58.85,1.12-88.26,2.27c-44.69,1.75-81.84,25.18-114.45,57.33
			c-5.15,5.07-14.29,12.92-15.28,21.14C464.75,1258.39,476.81,1257.93,482.09,1257.69z"/>
		<path class="st5" d="M478.63,1265.43c-5.25,0-12.44-0.76-16.91-5.58c-1.95-2.1-4.13-5.79-3.45-11.41
			c1.21-9.97,9.56-18.01,15.66-23.87c0.65-0.63,1.27-1.23,1.84-1.79c38.98-38.43,78.08-57.9,119.52-59.52
			c30.34-1.19,61.19-1.77,88.42-2.28c35.79-0.67,68.07-1.2,100.67-0.91c33.78,0.3,54.48,10.75,65.9,19.45
			c12.89,9.83,18.86,20.89,19.72,25.93c1.44,8.43-7.02,13.5-23.15,19.91c-14.75,5.86-37.53,13.17-69.64,22.34
			c-66.33,18.94-283.15,17.72-294.97,17.64C481.21,1265.38,479.98,1265.43,478.63,1265.43z M473.54,1249.65
			c1.12,0.33,3.43,0.63,8.21,0.42l0.2-0.01l0.2,0c2.25,0.02,226.21,1.4,290.86-17.05c57.05-16.29,74.97-24.17,80.58-27.5
			c-4.57-7.87-21.59-29.73-69.36-30.16c-32.41-0.29-64.57,0.24-100.25,0.91c-27.15,0.51-57.92,1.09-88.1,2.27
			c-37.46,1.47-73.24,19.5-109.39,55.13c-0.61,0.6-1.28,1.24-1.98,1.92C480.75,1239.19,474.56,1245.14,473.54,1249.65z"/>
	</g>
	<g>
		<path class="st7" d="M933.32,1245.69"/>
	</g>
	<g>
		<path class="st5" d="M365.94,1421.83c-30.92,0-62.11-0.22-68.52-1.08c-1.45-0.19-4.14-0.28-7-0.38
			c-13.15-0.45-31.16-1.06-37.92-11.63c-8.44-13.2-4.86-29.48,0.7-37.64c-1.51-10.25-3.92-40.04,9.92-81.24
			c14.74-43.88,77.96-51.99,115.73-56.84c8.55-1.1,15.93-2.04,20.7-3.15c22.59-5.24,27.05-8.81,35.93-15.93
			c0.84-0.68,1.72-1.38,2.65-2.11c1.91-1.51,4.77-3.91,8.4-6.95c17.3-14.5,49.51-41.5,70.68-49.28c2.92-1.07,5.61-2.15,8.22-3.19
			c19.4-7.75,36.15-14.45,132.51-18.4c87.93-3.6,161.39-1.01,192.77,0.1c7.41,0.26,12.76,0.45,15.22,0.45
			c7.44,0,19.99,0.45,30.91,1.72c15.54,1.81,26.11,4.77,27.22,13.33c1.77,13.66-9.18,23.01-15.28,28.12
			c1.1,1.28,2.35,2.71,3.53,4.07c15.44,17.74,29.53,34.49,32.24,44.52c3.35,12.37,2.11,67.08,1.64,83.9
			c3.62,4.74,10.43,15.69,11.16,31.75l0.04,0.96c1.17,25.45,2.27,49.49-12.6,52.36c-2.91,0.56-12.07,2.39-22.67,4.51
			c-21.03,4.21-49.82,9.97-56.2,11.08c-9.6,1.68-362.68,9.19-433.36,10.68l-0.1,0C426.28,1421.61,396.24,1421.83,365.94,1421.83z
			 M265.83,1379.17c-1.84,1.99-6.2,12.87-0.69,21.49c0.05,0.08,1.36,2.02,8.61,3.33c5.49,1,11.98,1.22,17.19,1.39
			c3.37,0.11,6.28,0.21,8.46,0.5c8.82,1.17,84.29,1.05,132.89,0.68c115.9-2.44,418.72-9.07,431.15-10.48
			c6.43-1.14,34.91-6.83,55.74-11c9.98-2,18.07-3.62,21.74-4.33c2.96-5.26,1.94-27.47,1.5-37.15l-0.04-0.96
			c-0.71-15.57-8.81-24.25-9.15-24.62l-2.24-2.28l0.14-3.15c0.82-27.32,1.27-73.83-1.04-82.37c-2.04-7.53-20.99-29.3-29.08-38.59
			c-6.28-7.21-7.71-8.91-8.53-10.5c-3.37-6.5,2.3-11.25,6.45-14.72c4.95-4.14,9.43-8.24,10.21-12.62
			c-6.36-2.3-25.47-4.25-43.21-4.25c-2.72,0-7.9-0.18-15.75-0.46c-31.2-1.1-104.27-3.68-191.62-0.1
			c-93.8,3.84-109.44,10.1-127.56,17.34c-2.7,1.08-5.5,2.2-8.61,3.34c-18.71,6.87-50.8,33.77-66.22,46.7
			c-3.72,3.12-6.65,5.58-8.73,7.22c-0.9,0.71-1.75,1.39-2.57,2.05c-10.81,8.67-17.11,13.09-41.92,18.84
			c-5.5,1.28-13.23,2.27-22.18,3.42c-34.29,4.4-91.68,11.76-103.42,46.74c-15.46,46.04-8.9,76.67-8.83,76.97l1.06,4.75
			L265.83,1379.17z M265.74,1379.23l-0.07,0.05C265.7,1379.27,265.72,1379.25,265.74,1379.23z"/>
	</g>
	<g>
		<path class="st5" d="M931.23,1289.58c-20.12,0-33.95-3.96-42.22-12.08c-8.19-8.04-9.24-18.41-9.24-26.55
			c0-16.41,10.52-21.5,16.08-21.9l0.34-0.01h46.25l-3.77,60.43l-4.44,0.08C933.21,1289.57,932.21,1289.58,931.23,1289.58z
			 M896.44,1238.66c-1.33,0.19-7.04,1.64-7.04,12.29c0,6.65,0.75,14.18,6.35,19.68c6.11,5.99,17.49,9.12,33.86,9.32l2.58-41.28
			H896.44z"/>
	</g>
	<g>
		<polygon class="st6" points="699.17,1251.24 720.32,1249.58 720.32,1169.28 699.17,1169.28 		"/>
		<path class="st5" d="M699.17,1257.99c-1.69,0-3.33-0.64-4.58-1.79c-1.38-1.28-2.17-3.07-2.17-4.96v-81.96
			c0-3.73,3.02-6.75,6.75-6.75h21.16c3.73,0,6.75,3.02,6.75,6.75v80.3c0,3.52-2.71,6.45-6.22,6.73l-21.16,1.66
			C699.52,1257.98,699.34,1257.99,699.17,1257.99z M705.91,1176.03v67.91l7.66-0.6v-67.31H705.91z"/>
	</g>
	<g>
		<path class="st6" d="M540.14,1237.86c-1.9,0-3.75-1-4.74-2.78c-1.46-2.61-0.52-5.91,2.1-7.37l60.31-33.6
			c2.61-1.46,5.91-0.52,7.37,2.1c1.46,2.61,0.52,5.91-2.1,7.37l-60.31,33.6C541.93,1237.64,541.03,1237.86,540.14,1237.86z"/>
	</g>
	<g>
		<path class="st6" d="M616.74,1218.64c-1.9,0-3.75-1-4.74-2.78c-1.46-2.61-0.52-5.91,2.1-7.37l31.05-17.3
			c2.61-1.46,5.91-0.52,7.37,2.1c1.46,2.61,0.52,5.91-2.1,7.37l-31.05,17.3C618.54,1218.42,617.63,1218.64,616.74,1218.64z"/>
	</g>
	<g>
		<path class="st6" d="M776.57,1210.55c-1.9,0-3.75-1-4.74-2.78c-1.46-2.61-0.52-5.91,2.1-7.37l31.05-17.3
			c2.61-1.46,5.91-0.52,7.37,2.1c1.46,2.61,0.52,5.91-2.1,7.37l-31.05,17.3C778.37,1210.33,777.47,1210.55,776.57,1210.55z"/>
	</g>
	<g>
		<path class="st6" d="M587.48,1234.94c-1.89,0-3.72-0.99-4.72-2.75c-1.47-2.6-0.55-5.91,2.05-7.38l12.3-6.95
			c2.6-1.47,5.91-0.55,7.38,2.05c1.47,2.6,0.55,5.91-2.05,7.38l-12.3,6.95C589.3,1234.71,588.38,1234.94,587.48,1234.94z"/>
	</g>
	<g>
		<path class="st6" d="M748.61,1207.34c-1.89,0-3.72-0.99-4.72-2.75c-1.47-2.6-0.55-5.91,2.05-7.38l12.3-6.95
			c2.6-1.47,5.91-0.55,7.38,2.05c1.47,2.6,0.55,5.91-2.05,7.38l-12.3,6.95C750.43,1207.12,749.51,1207.34,748.61,1207.34z"/>
	</g>
	<g>
		<path class="st5" d="M539.89,1162.51l-9.01-11.98c1.34-1,32.93-24.68,50.97-31.11c1.03-0.37,2.02-0.73,2.99-1.09
			c15.85-5.82,27.3-10.03,140.27-12.14c107.94-2.02,123.59,4.09,131.11,7.02c0.56,0.22,1.04,0.4,1.31,0.48
			c7.74,2.13,25.4,12.83,31.54,25.69l-13.53,6.46c-3.85-8.06-17.5-16.46-21.99-17.7c-1.02-0.28-1.91-0.63-2.78-0.97
			c-5.58-2.18-20.39-7.95-125.38-6c-110.45,2.06-121.45,6.1-135.38,11.22c-1.02,0.37-2.05,0.75-3.13,1.14
			C571,1139.2,540.2,1162.28,539.89,1162.51z"/>
	</g>
	<g>
		<path class="st5" d="M622.76,1298.07c-3.98,0-7.29-3.13-7.48-7.14c-0.2-4.13,3-7.65,7.13-7.84l46.96-2.23
			c4.12-0.21,7.65,3,7.84,7.13c0.2,4.13-3,7.65-7.13,7.84l-46.96,2.23C623,1298.07,622.88,1298.07,622.76,1298.07z"/>
	</g>
	<g>
		<g>
			
				<ellipse transform="matrix(0.7071 -0.7071 0.7071 0.7071 -870.132 680.1012)" class="st5" cx="385.89" cy="1390.39" rx="66.39" ry="66.39"/>
			<path class="st5" d="M385.89,1464.49c-40.86,0-74.1-33.24-74.1-74.1s33.24-74.1,74.1-74.1c40.86,0,74.1,33.24,74.1,74.1
				S426.75,1464.49,385.89,1464.49z M385.89,1331.71c-32.36,0-58.68,26.33-58.68,58.68c0,32.36,26.33,58.68,58.68,58.68
				c32.36,0,58.68-26.33,58.68-58.68C444.57,1358.04,418.25,1331.71,385.89,1331.71z"/>
		</g>
		<g>
			<circle class="st8" cx="385.89" cy="1390.39" r="36.27"/>
		</g>
	</g>
	<g>
		<path class="st5" d="M502.29,1374.27c-11.31,0-20.96-8.02-23.06-19.26l-18.63-99.73l14.37-2.69l18.63,99.73
			c0.81,4.34,4.57,7.41,8.9,7.32l182.83-4.19c2.97-0.07,5.39-2.59,5.39-5.63v-98.59h14.62v98.59c0,10.92-8.83,20-19.68,20.25
			l-182.83,4.19C502.66,1374.27,502.48,1374.27,502.29,1374.27z"/>
	</g>
	<g>
		<g>
			
				<ellipse transform="matrix(0.7071 -0.7071 0.7071 0.7071 -739.3461 995.8464)" class="st5" cx="832.42" cy="1390.39" rx="66.39" ry="66.39"/>
			<path class="st5" d="M832.42,1464.49c-40.86,0-74.1-33.24-74.1-74.1s33.24-74.1,74.1-74.1s74.1,33.24,74.1,74.1
				S873.28,1464.49,832.42,1464.49z M832.42,1331.71c-32.36,0-58.68,26.33-58.68,58.68c0,32.36,26.33,58.68,58.68,58.68
				s58.68-26.33,58.68-58.68C891.1,1358.04,864.78,1331.71,832.42,1331.71z"/>
		</g>
		<g>
			<circle class="st8" cx="832.42" cy="1390.39" r="36.27"/>
		</g>
	</g>
</g>
<g>
	<path class="st5" d="M1174.46,275.66c-3.28,0-6.58-1.07-9.35-3.27c-34.54-27.43-72.03-51.27-111.41-70.84
		c-7.44-3.7-10.48-12.74-6.78-20.18s12.74-10.48,20.18-6.78c41.27,20.51,80.54,45.49,116.73,74.22c6.51,5.17,7.6,14.64,2.43,21.15
		C1183.29,273.71,1178.9,275.66,1174.46,275.66z"/>
</g>
<g>
	<path class="st5" d="M1341.39,474.58c-5.35,0-10.53-2.86-13.25-7.89c-9.25-17.09-19.41-33.95-30.22-50.12
		c-4.62-6.91-2.76-16.26,4.16-20.88c6.91-4.62,16.26-2.76,20.88,4.16c11.32,16.95,21.97,34.62,31.66,52.52
		c3.96,7.31,1.24,16.45-6.08,20.4C1346.27,474,1343.81,474.58,1341.39,474.58z"/>
</g>
<g>
	<path class="st5" d="M1418.74,781.18c-8.31,0-15.05-6.74-15.05-15.05c0-86.99-17.39-171.23-51.7-250.36
		c-3.31-7.63,0.2-16.49,7.82-19.8c7.63-3.31,16.49,0.2,19.8,7.83c35.95,82.94,54.18,171.2,54.18,262.34
		C1433.8,774.44,1427.06,781.18,1418.74,781.18z"/>
</g>
<g>
	<path class="st5" d="M1281.44,1179.09c-3.25,0-6.53-1.05-9.28-3.21c-6.54-5.13-7.68-14.59-2.55-21.14
		c27.7-35.31,51.66-73.62,71.19-113.88c3.63-7.48,12.64-10.6,20.12-6.97c7.48,3.63,10.6,12.64,6.97,20.12
		c-20.47,42.18-45.57,82.32-74.59,119.32C1290.33,1177.11,1285.91,1179.09,1281.44,1179.09z"/>
</g>
<g>
	<path class="st5" d="M1016.14,1379.19c-5.95,0-11.58-3.55-13.95-9.39c-3.13-7.7,0.58-16.48,8.29-19.61
		c44.19-17.94,86.43-41.01,125.55-68.56c6.79-4.79,16.19-3.16,20.98,3.64c4.79,6.8,3.16,16.19-3.64,20.98
		c-40.99,28.87-85.25,53.05-131.56,71.85C1019.95,1378.83,1018.03,1379.19,1016.14,1379.19z"/>
</g>
<g>
	<path class="st5" d="M295.33,1214.18c-4.1,0-8.19-1.67-11.16-4.95c-37.54-41.44-69.71-87.49-95.61-136.87
		c-3.86-7.36-1.02-16.46,6.34-20.32c7.36-3.86,16.46-1.02,20.32,6.34c24.72,47.12,55.42,91.08,91.26,130.64
		c5.58,6.16,5.11,15.68-1.05,21.26C302.55,1212.9,298.94,1214.18,295.33,1214.18z"/>
</g>
<g>
	<path class="st5" d="M130.01,735.88c-0.35,0-0.7-0.01-1.06-0.04c-8.29-0.58-14.55-7.77-13.98-16.06
		c5.49-79.11,24.9-155.66,57.71-227.52c3.45-7.56,12.38-10.89,19.95-7.44c7.56,3.45,10.9,12.38,7.44,19.95
		c-31.3,68.56-49.82,141.61-55.06,217.1C144.47,729.8,137.85,735.88,130.01,735.88z"/>
</g>
<g>
	<path class="st5" d="M310.38,332.1c-3.77,0-7.55-1.41-10.48-4.25c-5.97-5.79-6.12-15.32-0.33-21.29
		c78.58-81.04,176.97-140.89,284.52-173.06c7.96-2.38,16.35,2.14,18.74,10.11c2.38,7.96-2.14,16.35-10.11,18.74
		c-102.63,30.7-196.52,87.81-271.53,165.17C318.24,330.58,314.31,332.1,310.38,332.1z"/>
</g>
</svg>
